ISO-10303-21;
HEADER;
/* Generated by software containing ST-Developer
 * from STEP Tools, Inc. (www.steptools.com) 
 */

FILE_DESCRIPTION(
/* description */ (''),
/* implementation_level */ '2;1');

FILE_NAME(
/* name */ 'Bottom.step',
/* time_stamp */ '2026-06-02T21:34:56+10:00',
/* author */ (''),
/* organization */ (''),
/* preprocessor_version */ 'ST-DEVELOPER v20.1',
/* originating_system */ 'Autodesk Translation Framework v15.8.0.0',
/* authorisation */ '');

FILE_SCHEMA (('AUTOMOTIVE_DESIGN { 1 0 10303 214 3 1 1 }'));
ENDSEC;

DATA;
#10=MECHANICAL_DESIGN_GEOMETRIC_PRESENTATION_REPRESENTATION('',(#13),#783);
#11=SHAPE_REPRESENTATION_RELATIONSHIP('SRR','None',#790,#12);
#12=ADVANCED_BREP_SHAPE_REPRESENTATION('',(#14),#782);
#13=STYLED_ITEM('',(#799),#14);
#14=MANIFOLD_SOLID_BREP('Body1',#467);
#15=FACE_BOUND('',#77,.T.);
#16=FACE_BOUND('',#80,.T.);
#17=FACE_BOUND('',#83,.T.);
#18=FACE_BOUND('',#86,.T.);
#19=FACE_BOUND('',#92,.T.);
#20=FACE_BOUND('',#93,.T.);
#21=FACE_BOUND('',#94,.T.);
#22=FACE_BOUND('',#95,.T.);
#23=FACE_BOUND('',#99,.T.);
#24=FACE_BOUND('',#100,.T.);
#25=FACE_BOUND('',#101,.T.);
#26=FACE_BOUND('',#102,.T.);
#27=PLANE('',#496);
#28=PLANE('',#500);
#29=PLANE('',#504);
#30=PLANE('',#508);
#31=PLANE('',#509);
#32=PLANE('',#510);
#33=PLANE('',#511);
#34=PLANE('',#512);
#35=PLANE('',#513);
#36=PLANE('',#514);
#37=PLANE('',#515);
#38=PLANE('',#516);
#39=PLANE('',#517);
#40=PLANE('',#518);
#41=PLANE('',#519);
#42=PLANE('',#520);
#43=PLANE('',#521);
#44=PLANE('',#522);
#45=FACE_OUTER_BOUND('',#71,.T.);
#46=FACE_OUTER_BOUND('',#72,.T.);
#47=FACE_OUTER_BOUND('',#73,.T.);
#48=FACE_OUTER_BOUND('',#74,.T.);
#49=FACE_OUTER_BOUND('',#75,.T.);
#50=FACE_OUTER_BOUND('',#76,.T.);
#51=FACE_OUTER_BOUND('',#78,.T.);
#52=FACE_OUTER_BOUND('',#79,.T.);
#53=FACE_OUTER_BOUND('',#81,.T.);
#54=FACE_OUTER_BOUND('',#82,.T.);
#55=FACE_OUTER_BOUND('',#84,.T.);
#56=FACE_OUTER_BOUND('',#85,.T.);
#57=FACE_OUTER_BOUND('',#87,.T.);
#58=FACE_OUTER_BOUND('',#88,.T.);
#59=FACE_OUTER_BOUND('',#89,.T.);
#60=FACE_OUTER_BOUND('',#90,.T.);
#61=FACE_OUTER_BOUND('',#91,.T.);
#62=FACE_OUTER_BOUND('',#96,.T.);
#63=FACE_OUTER_BOUND('',#97,.T.);
#64=FACE_OUTER_BOUND('',#98,.T.);
#65=FACE_OUTER_BOUND('',#103,.T.);
#66=FACE_OUTER_BOUND('',#104,.T.);
#67=FACE_OUTER_BOUND('',#105,.T.);
#68=FACE_OUTER_BOUND('',#106,.T.);
#69=FACE_OUTER_BOUND('',#107,.T.);
#70=FACE_OUTER_BOUND('',#108,.T.);
#71=EDGE_LOOP('',(#313,#314,#315,#316));
#72=EDGE_LOOP('',(#317,#318,#319,#320));
#73=EDGE_LOOP('',(#321,#322,#323,#324));
#74=EDGE_LOOP('',(#325,#326,#327,#328));
#75=EDGE_LOOP('',(#329,#330,#331,#332));
#76=EDGE_LOOP('',(#333));
#77=EDGE_LOOP('',(#334));
#78=EDGE_LOOP('',(#335,#336,#337,#338));
#79=EDGE_LOOP('',(#339));
#80=EDGE_LOOP('',(#340));
#81=EDGE_LOOP('',(#341,#342,#343,#344));
#82=EDGE_LOOP('',(#345));
#83=EDGE_LOOP('',(#346));
#84=EDGE_LOOP('',(#347,#348,#349,#350));
#85=EDGE_LOOP('',(#351));
#86=EDGE_LOOP('',(#352));
#87=EDGE_LOOP('',(#353,#354,#355,#356));
#88=EDGE_LOOP('',(#357,#358,#359,#360));
#89=EDGE_LOOP('',(#361,#362,#363,#364));
#90=EDGE_LOOP('',(#365,#366,#367,#368));
#91=EDGE_LOOP('',(#369,#370,#371,#372,#373,#374,#375,#376,#377,#378,#379,
#380));
#92=EDGE_LOOP('',(#381));
#93=EDGE_LOOP('',(#382));
#94=EDGE_LOOP('',(#383));
#95=EDGE_LOOP('',(#384));
#96=EDGE_LOOP('',(#385,#386,#387,#388,#389,#390,#391,#392));
#97=EDGE_LOOP('',(#393,#394,#395,#396));
#98=EDGE_LOOP('',(#397,#398,#399,#400));
#99=EDGE_LOOP('',(#401));
#100=EDGE_LOOP('',(#402));
#101=EDGE_LOOP('',(#403));
#102=EDGE_LOOP('',(#404));
#103=EDGE_LOOP('',(#405,#406,#407,#408));
#104=EDGE_LOOP('',(#409,#410,#411,#412));
#105=EDGE_LOOP('',(#413,#414,#415,#416,#417,#418,#419,#420));
#106=EDGE_LOOP('',(#421,#422,#423,#424));
#107=EDGE_LOOP('',(#425,#426,#427,#428));
#108=EDGE_LOOP('',(#429,#430,#431,#432));
#109=LINE('',#658,#153);
#110=LINE('',#664,#154);
#111=LINE('',#670,#155);
#112=LINE('',#676,#156);
#113=LINE('',#682,#157);
#114=LINE('',#689,#158);
#115=LINE('',#696,#159);
#116=LINE('',#703,#160);
#117=LINE('',#709,#161);
#118=LINE('',#711,#162);
#119=LINE('',#713,#163);
#120=LINE('',#714,#164);
#121=LINE('',#718,#165);
#122=LINE('',#720,#166);
#123=LINE('',#722,#167);
#124=LINE('',#723,#168);
#125=LINE('',#726,#169);
#126=LINE('',#728,#170);
#127=LINE('',#729,#171);
#128=LINE('',#732,#172);
#129=LINE('',#734,#173);
#130=LINE('',#735,#174);
#131=LINE('',#738,#175);
#132=LINE('',#740,#176);
#133=LINE('',#742,#177);
#134=LINE('',#744,#178);
#135=LINE('',#745,#179);
#136=LINE('',#747,#180);
#137=LINE('',#749,#181);
#138=LINE('',#750,#182);
#139=LINE('',#753,#183);
#140=LINE('',#755,#184);
#141=LINE('',#756,#185);
#142=LINE('',#757,#186);
#143=LINE('',#759,#187);
#144=LINE('',#763,#188);
#145=LINE('',#765,#189);
#146=LINE('',#767,#190);
#147=LINE('',#768,#191);
#148=LINE('',#770,#192);
#149=LINE('',#773,#193);
#150=LINE('',#774,#194);
#151=LINE('',#776,#195);
#152=LINE('',#778,#196);
#153=VECTOR('',#529,1.7);
#154=VECTOR('',#536,1.7);
#155=VECTOR('',#543,1.7);
#156=VECTOR('',#550,1.7);
#157=VECTOR('',#557,2.35000000000001);
#158=VECTOR('',#566,2.35);
#159=VECTOR('',#575,2.35);
#160=VECTOR('',#584,2.34999999999999);
#161=VECTOR('',#591,10.);
#162=VECTOR('',#592,10.);
#163=VECTOR('',#593,10.);
#164=VECTOR('',#594,10.);
#165=VECTOR('',#597,10.);
#166=VECTOR('',#598,10.);
#167=VECTOR('',#599,10.);
#168=VECTOR('',#600,10.);
#169=VECTOR('',#603,10.);
#170=VECTOR('',#604,10.);
#171=VECTOR('',#605,10.);
#172=VECTOR('',#608,10.);
#173=VECTOR('',#609,10.);
#174=VECTOR('',#610,10.);
#175=VECTOR('',#613,10.);
#176=VECTOR('',#614,10.);
#177=VECTOR('',#615,10.);
#178=VECTOR('',#616,10.);
#179=VECTOR('',#617,10.);
#180=VECTOR('',#618,10.);
#181=VECTOR('',#619,10.);
#182=VECTOR('',#620,10.);
#183=VECTOR('',#623,10.);
#184=VECTOR('',#624,10.);
#185=VECTOR('',#625,10.);
#186=VECTOR('',#626,10.);
#187=VECTOR('',#629,10.);
#188=VECTOR('',#632,10.);
#189=VECTOR('',#633,10.);
#190=VECTOR('',#634,10.);
#191=VECTOR('',#635,10.);
#192=VECTOR('',#638,10.);
#193=VECTOR('',#643,10.);
#194=VECTOR('',#644,10.);
#195=VECTOR('',#647,10.);
#196=VECTOR('',#650,10.);
#197=CIRCLE('',#482,1.7);
#198=CIRCLE('',#483,1.7);
#199=CIRCLE('',#485,1.7);
#200=CIRCLE('',#486,1.7);
#201=CIRCLE('',#488,1.7);
#202=CIRCLE('',#489,1.7);
#203=CIRCLE('',#491,1.7);
#204=CIRCLE('',#492,1.7);
#205=CIRCLE('',#494,2.35000000000001);
#206=CIRCLE('',#495,2.35000000000001);
#207=CIRCLE('',#498,2.35);
#208=CIRCLE('',#499,2.35);
#209=CIRCLE('',#502,2.35);
#210=CIRCLE('',#503,2.35);
#211=CIRCLE('',#506,2.34999999999999);
#212=CIRCLE('',#507,2.34999999999999);
#213=VERTEX_POINT('',#655);
#214=VERTEX_POINT('',#657);
#215=VERTEX_POINT('',#661);
#216=VERTEX_POINT('',#663);
#217=VERTEX_POINT('',#667);
#218=VERTEX_POINT('',#669);
#219=VERTEX_POINT('',#673);
#220=VERTEX_POINT('',#675);
#221=VERTEX_POINT('',#679);
#222=VERTEX_POINT('',#681);
#223=VERTEX_POINT('',#686);
#224=VERTEX_POINT('',#688);
#225=VERTEX_POINT('',#693);
#226=VERTEX_POINT('',#695);
#227=VERTEX_POINT('',#700);
#228=VERTEX_POINT('',#702);
#229=VERTEX_POINT('',#707);
#230=VERTEX_POINT('',#708);
#231=VERTEX_POINT('',#710);
#232=VERTEX_POINT('',#712);
#233=VERTEX_POINT('',#716);
#234=VERTEX_POINT('',#717);
#235=VERTEX_POINT('',#719);
#236=VERTEX_POINT('',#721);
#237=VERTEX_POINT('',#725);
#238=VERTEX_POINT('',#727);
#239=VERTEX_POINT('',#731);
#240=VERTEX_POINT('',#733);
#241=VERTEX_POINT('',#737);
#242=VERTEX_POINT('',#739);
#243=VERTEX_POINT('',#741);
#244=VERTEX_POINT('',#743);
#245=VERTEX_POINT('',#746);
#246=VERTEX_POINT('',#748);
#247=VERTEX_POINT('',#752);
#248=VERTEX_POINT('',#754);
#249=VERTEX_POINT('',#761);
#250=VERTEX_POINT('',#762);
#251=VERTEX_POINT('',#764);
#252=VERTEX_POINT('',#766);
#253=EDGE_CURVE('',#213,#213,#197,.T.);
#254=EDGE_CURVE('',#213,#214,#109,.T.);
#255=EDGE_CURVE('',#214,#214,#198,.T.);
#256=EDGE_CURVE('',#215,#215,#199,.T.);
#257=EDGE_CURVE('',#215,#216,#110,.T.);
#258=EDGE_CURVE('',#216,#216,#200,.T.);
#259=EDGE_CURVE('',#217,#217,#201,.T.);
#260=EDGE_CURVE('',#217,#218,#111,.T.);
#261=EDGE_CURVE('',#218,#218,#202,.T.);
#262=EDGE_CURVE('',#219,#219,#203,.T.);
#263=EDGE_CURVE('',#219,#220,#112,.T.);
#264=EDGE_CURVE('',#220,#220,#204,.T.);
#265=EDGE_CURVE('',#221,#221,#205,.T.);
#266=EDGE_CURVE('',#221,#222,#113,.T.);
#267=EDGE_CURVE('',#222,#222,#206,.T.);
#268=EDGE_CURVE('',#223,#223,#207,.T.);
#269=EDGE_CURVE('',#223,#224,#114,.T.);
#270=EDGE_CURVE('',#224,#224,#208,.T.);
#271=EDGE_CURVE('',#225,#225,#209,.T.);
#272=EDGE_CURVE('',#225,#226,#115,.T.);
#273=EDGE_CURVE('',#226,#226,#210,.T.);
#274=EDGE_CURVE('',#227,#227,#211,.T.);
#275=EDGE_CURVE('',#227,#228,#116,.T.);
#276=EDGE_CURVE('',#228,#228,#212,.T.);
#277=EDGE_CURVE('',#229,#230,#117,.T.);
#278=EDGE_CURVE('',#229,#231,#118,.T.);
#279=EDGE_CURVE('',#232,#231,#119,.T.);
#280=EDGE_CURVE('',#230,#232,#120,.T.);
#281=EDGE_CURVE('',#233,#234,#121,.T.);
#282=EDGE_CURVE('',#235,#233,#122,.T.);
#283=EDGE_CURVE('',#236,#235,#123,.T.);
#284=EDGE_CURVE('',#234,#236,#124,.T.);
#285=EDGE_CURVE('',#234,#237,#125,.T.);
#286=EDGE_CURVE('',#237,#238,#126,.T.);
#287=EDGE_CURVE('',#233,#238,#127,.T.);
#288=EDGE_CURVE('',#239,#230,#128,.T.);
#289=EDGE_CURVE('',#240,#239,#129,.T.);
#290=EDGE_CURVE('',#240,#229,#130,.T.);
#291=EDGE_CURVE('',#232,#241,#131,.T.);
#292=EDGE_CURVE('',#241,#242,#132,.T.);
#293=EDGE_CURVE('',#242,#243,#133,.T.);
#294=EDGE_CURVE('',#243,#244,#134,.T.);
#295=EDGE_CURVE('',#244,#235,#135,.T.);
#296=EDGE_CURVE('',#238,#245,#136,.T.);
#297=EDGE_CURVE('',#245,#246,#137,.T.);
#298=EDGE_CURVE('',#246,#239,#138,.T.);
#299=EDGE_CURVE('',#247,#240,#139,.T.);
#300=EDGE_CURVE('',#248,#247,#140,.T.);
#301=EDGE_CURVE('',#237,#248,#141,.T.);
#302=EDGE_CURVE('',#231,#236,#142,.T.);
#303=EDGE_CURVE('',#248,#245,#143,.T.);
#304=EDGE_CURVE('',#249,#250,#144,.T.);
#305=EDGE_CURVE('',#250,#251,#145,.T.);
#306=EDGE_CURVE('',#251,#252,#146,.T.);
#307=EDGE_CURVE('',#252,#249,#147,.T.);
#308=EDGE_CURVE('',#247,#246,#148,.T.);
#309=EDGE_CURVE('',#251,#244,#149,.T.);
#310=EDGE_CURVE('',#250,#241,#150,.T.);
#311=EDGE_CURVE('',#252,#243,#151,.T.);
#312=EDGE_CURVE('',#249,#242,#152,.T.);
#313=ORIENTED_EDGE('',*,*,#253,.F.);
#314=ORIENTED_EDGE('',*,*,#254,.T.);
#315=ORIENTED_EDGE('',*,*,#255,.F.);
#316=ORIENTED_EDGE('',*,*,#254,.F.);
#317=ORIENTED_EDGE('',*,*,#256,.F.);
#318=ORIENTED_EDGE('',*,*,#257,.T.);
#319=ORIENTED_EDGE('',*,*,#258,.F.);
#320=ORIENTED_EDGE('',*,*,#257,.F.);
#321=ORIENTED_EDGE('',*,*,#259,.F.);
#322=ORIENTED_EDGE('',*,*,#260,.T.);
#323=ORIENTED_EDGE('',*,*,#261,.F.);
#324=ORIENTED_EDGE('',*,*,#260,.F.);
#325=ORIENTED_EDGE('',*,*,#262,.F.);
#326=ORIENTED_EDGE('',*,*,#263,.T.);
#327=ORIENTED_EDGE('',*,*,#264,.F.);
#328=ORIENTED_EDGE('',*,*,#263,.F.);
#329=ORIENTED_EDGE('',*,*,#265,.F.);
#330=ORIENTED_EDGE('',*,*,#266,.T.);
#331=ORIENTED_EDGE('',*,*,#267,.T.);
#332=ORIENTED_EDGE('',*,*,#266,.F.);
#333=ORIENTED_EDGE('',*,*,#267,.F.);
#334=ORIENTED_EDGE('',*,*,#262,.T.);
#335=ORIENTED_EDGE('',*,*,#268,.F.);
#336=ORIENTED_EDGE('',*,*,#269,.T.);
#337=ORIENTED_EDGE('',*,*,#270,.T.);
#338=ORIENTED_EDGE('',*,*,#269,.F.);
#339=ORIENTED_EDGE('',*,*,#270,.F.);
#340=ORIENTED_EDGE('',*,*,#253,.T.);
#341=ORIENTED_EDGE('',*,*,#271,.F.);
#342=ORIENTED_EDGE('',*,*,#272,.T.);
#343=ORIENTED_EDGE('',*,*,#273,.T.);
#344=ORIENTED_EDGE('',*,*,#272,.F.);
#345=ORIENTED_EDGE('',*,*,#273,.F.);
#346=ORIENTED_EDGE('',*,*,#259,.T.);
#347=ORIENTED_EDGE('',*,*,#274,.F.);
#348=ORIENTED_EDGE('',*,*,#275,.T.);
#349=ORIENTED_EDGE('',*,*,#276,.T.);
#350=ORIENTED_EDGE('',*,*,#275,.F.);
#351=ORIENTED_EDGE('',*,*,#276,.F.);
#352=ORIENTED_EDGE('',*,*,#256,.T.);
#353=ORIENTED_EDGE('',*,*,#277,.F.);
#354=ORIENTED_EDGE('',*,*,#278,.T.);
#355=ORIENTED_EDGE('',*,*,#279,.F.);
#356=ORIENTED_EDGE('',*,*,#280,.F.);
#357=ORIENTED_EDGE('',*,*,#281,.F.);
#358=ORIENTED_EDGE('',*,*,#282,.F.);
#359=ORIENTED_EDGE('',*,*,#283,.F.);
#360=ORIENTED_EDGE('',*,*,#284,.F.);
#361=ORIENTED_EDGE('',*,*,#281,.T.);
#362=ORIENTED_EDGE('',*,*,#285,.T.);
#363=ORIENTED_EDGE('',*,*,#286,.T.);
#364=ORIENTED_EDGE('',*,*,#287,.F.);
#365=ORIENTED_EDGE('',*,*,#277,.T.);
#366=ORIENTED_EDGE('',*,*,#288,.F.);
#367=ORIENTED_EDGE('',*,*,#289,.F.);
#368=ORIENTED_EDGE('',*,*,#290,.T.);
#369=ORIENTED_EDGE('',*,*,#280,.T.);
#370=ORIENTED_EDGE('',*,*,#291,.T.);
#371=ORIENTED_EDGE('',*,*,#292,.T.);
#372=ORIENTED_EDGE('',*,*,#293,.T.);
#373=ORIENTED_EDGE('',*,*,#294,.T.);
#374=ORIENTED_EDGE('',*,*,#295,.T.);
#375=ORIENTED_EDGE('',*,*,#282,.T.);
#376=ORIENTED_EDGE('',*,*,#287,.T.);
#377=ORIENTED_EDGE('',*,*,#296,.T.);
#378=ORIENTED_EDGE('',*,*,#297,.T.);
#379=ORIENTED_EDGE('',*,*,#298,.T.);
#380=ORIENTED_EDGE('',*,*,#288,.T.);
#381=ORIENTED_EDGE('',*,*,#255,.T.);
#382=ORIENTED_EDGE('',*,*,#258,.T.);
#383=ORIENTED_EDGE('',*,*,#261,.T.);
#384=ORIENTED_EDGE('',*,*,#264,.T.);
#385=ORIENTED_EDGE('',*,*,#290,.F.);
#386=ORIENTED_EDGE('',*,*,#299,.F.);
#387=ORIENTED_EDGE('',*,*,#300,.F.);
#388=ORIENTED_EDGE('',*,*,#301,.F.);
#389=ORIENTED_EDGE('',*,*,#285,.F.);
#390=ORIENTED_EDGE('',*,*,#284,.T.);
#391=ORIENTED_EDGE('',*,*,#302,.F.);
#392=ORIENTED_EDGE('',*,*,#278,.F.);
#393=ORIENTED_EDGE('',*,*,#301,.T.);
#394=ORIENTED_EDGE('',*,*,#303,.T.);
#395=ORIENTED_EDGE('',*,*,#296,.F.);
#396=ORIENTED_EDGE('',*,*,#286,.F.);
#397=ORIENTED_EDGE('',*,*,#304,.T.);
#398=ORIENTED_EDGE('',*,*,#305,.T.);
#399=ORIENTED_EDGE('',*,*,#306,.T.);
#400=ORIENTED_EDGE('',*,*,#307,.T.);
#401=ORIENTED_EDGE('',*,*,#265,.T.);
#402=ORIENTED_EDGE('',*,*,#268,.T.);
#403=ORIENTED_EDGE('',*,*,#271,.T.);
#404=ORIENTED_EDGE('',*,*,#274,.T.);
#405=ORIENTED_EDGE('',*,*,#300,.T.);
#406=ORIENTED_EDGE('',*,*,#308,.T.);
#407=ORIENTED_EDGE('',*,*,#297,.F.);
#408=ORIENTED_EDGE('',*,*,#303,.F.);
#409=ORIENTED_EDGE('',*,*,#299,.T.);
#410=ORIENTED_EDGE('',*,*,#289,.T.);
#411=ORIENTED_EDGE('',*,*,#298,.F.);
#412=ORIENTED_EDGE('',*,*,#308,.F.);
#413=ORIENTED_EDGE('',*,*,#283,.T.);
#414=ORIENTED_EDGE('',*,*,#295,.F.);
#415=ORIENTED_EDGE('',*,*,#309,.F.);
#416=ORIENTED_EDGE('',*,*,#305,.F.);
#417=ORIENTED_EDGE('',*,*,#310,.T.);
#418=ORIENTED_EDGE('',*,*,#291,.F.);
#419=ORIENTED_EDGE('',*,*,#279,.T.);
#420=ORIENTED_EDGE('',*,*,#302,.T.);
#421=ORIENTED_EDGE('',*,*,#306,.F.);
#422=ORIENTED_EDGE('',*,*,#309,.T.);
#423=ORIENTED_EDGE('',*,*,#294,.F.);
#424=ORIENTED_EDGE('',*,*,#311,.F.);
#425=ORIENTED_EDGE('',*,*,#307,.F.);
#426=ORIENTED_EDGE('',*,*,#311,.T.);
#427=ORIENTED_EDGE('',*,*,#293,.F.);
#428=ORIENTED_EDGE('',*,*,#312,.F.);
#429=ORIENTED_EDGE('',*,*,#304,.F.);
#430=ORIENTED_EDGE('',*,*,#312,.T.);
#431=ORIENTED_EDGE('',*,*,#292,.F.);
#432=ORIENTED_EDGE('',*,*,#310,.F.);
#433=CYLINDRICAL_SURFACE('',#481,1.7);
#434=CYLINDRICAL_SURFACE('',#484,1.7);
#435=CYLINDRICAL_SURFACE('',#487,1.7);
#436=CYLINDRICAL_SURFACE('',#490,1.7);
#437=CYLINDRICAL_SURFACE('',#493,2.35000000000001);
#438=CYLINDRICAL_SURFACE('',#497,2.35);
#439=CYLINDRICAL_SURFACE('',#501,2.35);
#440=CYLINDRICAL_SURFACE('',#505,2.34999999999999);
#441=ADVANCED_FACE('',(#45),#433,.F.);
#442=ADVANCED_FACE('',(#46),#434,.F.);
#443=ADVANCED_FACE('',(#47),#435,.F.);
#444=ADVANCED_FACE('',(#48),#436,.F.);
#445=ADVANCED_FACE('',(#49),#437,.F.);
#446=ADVANCED_FACE('',(#50,#15),#27,.T.);
#447=ADVANCED_FACE('',(#51),#438,.F.);
#448=ADVANCED_FACE('',(#52,#16),#28,.T.);
#449=ADVANCED_FACE('',(#53),#439,.F.);
#450=ADVANCED_FACE('',(#54,#17),#29,.T.);
#451=ADVANCED_FACE('',(#55),#440,.F.);
#452=ADVANCED_FACE('',(#56,#18),#30,.T.);
#453=ADVANCED_FACE('',(#57),#31,.T.);
#454=ADVANCED_FACE('',(#58),#32,.T.);
#455=ADVANCED_FACE('',(#59),#33,.T.);
#456=ADVANCED_FACE('',(#60),#34,.T.);
#457=ADVANCED_FACE('',(#61,#19,#20,#21,#22),#35,.T.);
#458=ADVANCED_FACE('',(#62),#36,.F.);
#459=ADVANCED_FACE('',(#63),#37,.T.);
#460=ADVANCED_FACE('',(#64,#23,#24,#25,#26),#38,.F.);
#461=ADVANCED_FACE('',(#65),#39,.T.);
#462=ADVANCED_FACE('',(#66),#40,.T.);
#463=ADVANCED_FACE('',(#67),#41,.T.);
#464=ADVANCED_FACE('',(#68),#42,.T.);
#465=ADVANCED_FACE('',(#69),#43,.T.);
#466=ADVANCED_FACE('',(#70),#44,.T.);
#467=CLOSED_SHELL('',(#441,#442,#443,#444,#445,#446,#447,#448,#449,#450,
#451,#452,#453,#454,#455,#456,#457,#458,#459,#460,#461,#462,#463,#464,#465,
#466));
#468=DERIVED_UNIT_ELEMENT(#470,1.);
#469=DERIVED_UNIT_ELEMENT(#785,-3.);
#470=(
MASS_UNIT()
NAMED_UNIT(*)
SI_UNIT(.KILO.,.GRAM.)
);
#471=DERIVED_UNIT((#468,#469));
#472=MEASURE_REPRESENTATION_ITEM('density measure',
POSITIVE_RATIO_MEASURE(7850.),#471);
#473=PROPERTY_DEFINITION_REPRESENTATION(#478,#475);
#474=PROPERTY_DEFINITION_REPRESENTATION(#479,#476);
#475=REPRESENTATION('material name',(#477),#782);
#476=REPRESENTATION('density',(#472),#782);
#477=DESCRIPTIVE_REPRESENTATION_ITEM('Steel','Steel');
#478=PROPERTY_DEFINITION('material property','material name',#792);
#479=PROPERTY_DEFINITION('material property','density of part',#792);
#480=AXIS2_PLACEMENT_3D('',#653,#523,#524);
#481=AXIS2_PLACEMENT_3D('',#654,#525,#526);
#482=AXIS2_PLACEMENT_3D('',#656,#527,#528);
#483=AXIS2_PLACEMENT_3D('',#659,#530,#531);
#484=AXIS2_PLACEMENT_3D('',#660,#532,#533);
#485=AXIS2_PLACEMENT_3D('',#662,#534,#535);
#486=AXIS2_PLACEMENT_3D('',#665,#537,#538);
#487=AXIS2_PLACEMENT_3D('',#666,#539,#540);
#488=AXIS2_PLACEMENT_3D('',#668,#541,#542);
#489=AXIS2_PLACEMENT_3D('',#671,#544,#545);
#490=AXIS2_PLACEMENT_3D('',#672,#546,#547);
#491=AXIS2_PLACEMENT_3D('',#674,#548,#549);
#492=AXIS2_PLACEMENT_3D('',#677,#551,#552);
#493=AXIS2_PLACEMENT_3D('',#678,#553,#554);
#494=AXIS2_PLACEMENT_3D('',#680,#555,#556);
#495=AXIS2_PLACEMENT_3D('',#683,#558,#559);
#496=AXIS2_PLACEMENT_3D('',#684,#560,#561);
#497=AXIS2_PLACEMENT_3D('',#685,#562,#563);
#498=AXIS2_PLACEMENT_3D('',#687,#564,#565);
#499=AXIS2_PLACEMENT_3D('',#690,#567,#568);
#500=AXIS2_PLACEMENT_3D('',#691,#569,#570);
#501=AXIS2_PLACEMENT_3D('',#692,#571,#572);
#502=AXIS2_PLACEMENT_3D('',#694,#573,#574);
#503=AXIS2_PLACEMENT_3D('',#697,#576,#577);
#504=AXIS2_PLACEMENT_3D('',#698,#578,#579);
#505=AXIS2_PLACEMENT_3D('',#699,#580,#581);
#506=AXIS2_PLACEMENT_3D('',#701,#582,#583);
#507=AXIS2_PLACEMENT_3D('',#704,#585,#586);
#508=AXIS2_PLACEMENT_3D('',#705,#587,#588);
#509=AXIS2_PLACEMENT_3D('',#706,#589,#590);
#510=AXIS2_PLACEMENT_3D('',#715,#595,#596);
#511=AXIS2_PLACEMENT_3D('',#724,#601,#602);
#512=AXIS2_PLACEMENT_3D('',#730,#606,#607);
#513=AXIS2_PLACEMENT_3D('',#736,#611,#612);
#514=AXIS2_PLACEMENT_3D('',#751,#621,#622);
#515=AXIS2_PLACEMENT_3D('',#758,#627,#628);
#516=AXIS2_PLACEMENT_3D('',#760,#630,#631);
#517=AXIS2_PLACEMENT_3D('',#769,#636,#637);
#518=AXIS2_PLACEMENT_3D('',#771,#639,#640);
#519=AXIS2_PLACEMENT_3D('',#772,#641,#642);
#520=AXIS2_PLACEMENT_3D('',#775,#645,#646);
#521=AXIS2_PLACEMENT_3D('',#777,#648,#649);
#522=AXIS2_PLACEMENT_3D('',#779,#651,#652);
#523=DIRECTION('axis',(0.,0.,1.));
#524=DIRECTION('refdir',(1.,0.,0.));
#525=DIRECTION('center_axis',(0.,0.,1.));
#526=DIRECTION('ref_axis',(1.,0.,0.));
#527=DIRECTION('center_axis',(0.,0.,1.));
#528=DIRECTION('ref_axis',(1.,0.,0.));
#529=DIRECTION('',(0.,0.,1.));
#530=DIRECTION('center_axis',(0.,0.,-1.));
#531=DIRECTION('ref_axis',(1.,0.,0.));
#532=DIRECTION('center_axis',(0.,0.,1.));
#533=DIRECTION('ref_axis',(1.,0.,0.));
#534=DIRECTION('center_axis',(0.,0.,1.));
#535=DIRECTION('ref_axis',(1.,0.,0.));
#536=DIRECTION('',(0.,0.,1.));
#537=DIRECTION('center_axis',(0.,0.,-1.));
#538=DIRECTION('ref_axis',(1.,0.,0.));
#539=DIRECTION('center_axis',(0.,0.,1.));
#540=DIRECTION('ref_axis',(1.,0.,0.));
#541=DIRECTION('center_axis',(0.,0.,1.));
#542=DIRECTION('ref_axis',(1.,0.,0.));
#543=DIRECTION('',(0.,0.,1.));
#544=DIRECTION('center_axis',(0.,0.,-1.));
#545=DIRECTION('ref_axis',(1.,0.,0.));
#546=DIRECTION('center_axis',(0.,0.,1.));
#547=DIRECTION('ref_axis',(1.,0.,0.));
#548=DIRECTION('center_axis',(0.,0.,1.));
#549=DIRECTION('ref_axis',(1.,0.,0.));
#550=DIRECTION('',(0.,0.,1.));
#551=DIRECTION('center_axis',(0.,0.,-1.));
#552=DIRECTION('ref_axis',(1.,0.,0.));
#553=DIRECTION('center_axis',(0.,0.,1.));
#554=DIRECTION('ref_axis',(1.,0.,0.));
#555=DIRECTION('center_axis',(0.,0.,1.));
#556=DIRECTION('ref_axis',(1.,0.,0.));
#557=DIRECTION('',(0.,0.,1.));
#558=DIRECTION('center_axis',(0.,0.,1.));
#559=DIRECTION('ref_axis',(1.,0.,0.));
#560=DIRECTION('center_axis',(0.,0.,-1.));
#561=DIRECTION('ref_axis',(1.,0.,0.));
#562=DIRECTION('center_axis',(0.,0.,1.));
#563=DIRECTION('ref_axis',(1.,0.,0.));
#564=DIRECTION('center_axis',(0.,0.,1.));
#565=DIRECTION('ref_axis',(1.,0.,0.));
#566=DIRECTION('',(0.,0.,1.));
#567=DIRECTION('center_axis',(0.,0.,1.));
#568=DIRECTION('ref_axis',(1.,0.,0.));
#569=DIRECTION('center_axis',(0.,0.,-1.));
#570=DIRECTION('ref_axis',(1.,0.,0.));
#571=DIRECTION('center_axis',(0.,0.,1.));
#572=DIRECTION('ref_axis',(1.,0.,0.));
#573=DIRECTION('center_axis',(0.,0.,1.));
#574=DIRECTION('ref_axis',(1.,0.,0.));
#575=DIRECTION('',(0.,0.,1.));
#576=DIRECTION('center_axis',(0.,0.,1.));
#577=DIRECTION('ref_axis',(1.,0.,0.));
#578=DIRECTION('center_axis',(0.,0.,-1.));
#579=DIRECTION('ref_axis',(1.,0.,0.));
#580=DIRECTION('center_axis',(0.,0.,1.));
#581=DIRECTION('ref_axis',(1.,0.,0.));
#582=DIRECTION('center_axis',(0.,0.,1.));
#583=DIRECTION('ref_axis',(1.,0.,0.));
#584=DIRECTION('',(0.,0.,1.));
#585=DIRECTION('center_axis',(0.,0.,1.));
#586=DIRECTION('ref_axis',(1.,0.,0.));
#587=DIRECTION('center_axis',(0.,0.,-1.));
#588=DIRECTION('ref_axis',(1.,0.,0.));
#589=DIRECTION('center_axis',(0.,1.,0.));
#590=DIRECTION('ref_axis',(1.,0.,0.));
#591=DIRECTION('',(0.,0.,1.));
#592=DIRECTION('',(-1.,0.,0.));
#593=DIRECTION('',(0.,0.,-1.));
#594=DIRECTION('',(-1.,0.,0.));
#595=DIRECTION('center_axis',(0.,-1.,0.));
#596=DIRECTION('ref_axis',(-1.,0.,0.));
#597=DIRECTION('',(0.,0.,-1.));
#598=DIRECTION('',(1.,0.,0.));
#599=DIRECTION('',(0.,0.,1.));
#600=DIRECTION('',(-1.,0.,0.));
#601=DIRECTION('center_axis',(1.,0.,0.));
#602=DIRECTION('ref_axis',(0.,1.,0.));
#603=DIRECTION('',(0.,1.,0.));
#604=DIRECTION('',(0.,0.,1.));
#605=DIRECTION('',(0.,1.,0.));
#606=DIRECTION('center_axis',(1.,0.,0.));
#607=DIRECTION('ref_axis',(0.,1.,0.));
#608=DIRECTION('',(0.,1.,0.));
#609=DIRECTION('',(0.,0.,1.));
#610=DIRECTION('',(0.,1.,0.));
#611=DIRECTION('center_axis',(0.,0.,1.));
#612=DIRECTION('ref_axis',(1.,0.,0.));
#613=DIRECTION('',(0.,-1.,0.));
#614=DIRECTION('',(1.,0.,0.));
#615=DIRECTION('',(0.,1.,0.));
#616=DIRECTION('',(-1.,0.,0.));
#617=DIRECTION('',(0.,-1.,0.));
#618=DIRECTION('',(1.,0.,0.));
#619=DIRECTION('',(0.,-1.,0.));
#620=DIRECTION('',(-1.,0.,0.));
#621=DIRECTION('center_axis',(0.,0.,-1.));
#622=DIRECTION('ref_axis',(0.,-1.,0.));
#623=DIRECTION('',(-1.,0.,0.));
#624=DIRECTION('',(0.,-1.,0.));
#625=DIRECTION('',(1.,0.,0.));
#626=DIRECTION('',(0.,1.,0.));
#627=DIRECTION('center_axis',(0.,-1.,0.));
#628=DIRECTION('ref_axis',(1.,0.,0.));
#629=DIRECTION('',(0.,0.,1.));
#630=DIRECTION('center_axis',(0.,0.,1.));
#631=DIRECTION('ref_axis',(1.,0.,0.));
#632=DIRECTION('',(-1.,0.,0.));
#633=DIRECTION('',(0.,1.,0.));
#634=DIRECTION('',(1.,0.,0.));
#635=DIRECTION('',(0.,-1.,0.));
#636=DIRECTION('center_axis',(-1.,0.,0.));
#637=DIRECTION('ref_axis',(0.,-1.,0.));
#638=DIRECTION('',(0.,0.,1.));
#639=DIRECTION('center_axis',(0.,1.,0.));
#640=DIRECTION('ref_axis',(-1.,0.,0.));
#641=DIRECTION('center_axis',(-1.,0.,0.));
#642=DIRECTION('ref_axis',(0.,-1.,0.));
#643=DIRECTION('',(0.,0.,1.));
#644=DIRECTION('',(0.,0.,1.));
#645=DIRECTION('center_axis',(0.,1.,0.));
#646=DIRECTION('ref_axis',(-1.,0.,0.));
#647=DIRECTION('',(0.,0.,1.));
#648=DIRECTION('center_axis',(1.,0.,0.));
#649=DIRECTION('ref_axis',(0.,1.,0.));
#650=DIRECTION('',(0.,0.,1.));
#651=DIRECTION('center_axis',(0.,-1.,0.));
#652=DIRECTION('ref_axis',(1.,0.,0.));
#653=CARTESIAN_POINT('',(0.,0.,0.));
#654=CARTESIAN_POINT('Origin',(-21.1000013411045,-16.3999992549419,4.));
#655=CARTESIAN_POINT('',(-22.8000013411045,-16.3999992549419,4.));
#656=CARTESIAN_POINT('Origin',(-21.1000013411045,-16.3999992549419,4.));
#657=CARTESIAN_POINT('',(-22.8000013411045,-16.3999992549419,13.));
#658=CARTESIAN_POINT('',(-22.8000013411045,-16.3999992549419,4.));
#659=CARTESIAN_POINT('Origin',(-21.1000013411045,-16.3999992549419,13.));
#660=CARTESIAN_POINT('Origin',(-90.,-16.3999992549419,4.));
#661=CARTESIAN_POINT('',(-91.7,-16.3999992549419,4.));
#662=CARTESIAN_POINT('Origin',(-90.,-16.3999992549419,4.));
#663=CARTESIAN_POINT('',(-91.7,-16.3999992549419,13.));
#664=CARTESIAN_POINT('',(-91.7,-16.3999992549419,4.));
#665=CARTESIAN_POINT('Origin',(-90.,-16.3999992549419,13.));
#666=CARTESIAN_POINT('Origin',(-21.1000013411045,50.0000007450581,4.));
#667=CARTESIAN_POINT('',(-22.8000013411045,50.0000007450581,4.));
#668=CARTESIAN_POINT('Origin',(-21.1000013411045,50.0000007450581,4.));
#669=CARTESIAN_POINT('',(-22.8000013411045,50.0000007450581,13.));
#670=CARTESIAN_POINT('',(-22.8000013411045,50.0000007450581,4.));
#671=CARTESIAN_POINT('Origin',(-21.1000013411045,50.0000007450581,13.));
#672=CARTESIAN_POINT('Origin',(-90.0000013411045,50.0000007450581,4.));
#673=CARTESIAN_POINT('',(-91.7000013411045,50.0000007450581,4.));
#674=CARTESIAN_POINT('Origin',(-90.0000013411045,50.0000007450581,4.));
#675=CARTESIAN_POINT('',(-91.7000013411045,50.0000007450581,13.));
#676=CARTESIAN_POINT('',(-91.7000013411045,50.0000007450581,4.));
#677=CARTESIAN_POINT('Origin',(-90.0000013411045,50.0000007450581,13.));
#678=CARTESIAN_POINT('Origin',(-90.0000013411045,50.0000007450581,0.));
#679=CARTESIAN_POINT('',(-92.3500013411045,50.0000007450581,0.));
#680=CARTESIAN_POINT('Origin',(-90.0000013411045,50.0000007450581,0.));
#681=CARTESIAN_POINT('',(-92.3500013411045,50.0000007450581,4.));
#682=CARTESIAN_POINT('',(-92.3500013411045,50.0000007450581,0.));
#683=CARTESIAN_POINT('Origin',(-90.0000013411045,50.0000007450581,4.));
#684=CARTESIAN_POINT('Origin',(-90.0000013411045,50.0000007450581,4.));
#685=CARTESIAN_POINT('Origin',(-21.1000013411045,-16.3999992549419,0.));
#686=CARTESIAN_POINT('',(-23.4500013411045,-16.3999992549419,0.));
#687=CARTESIAN_POINT('Origin',(-21.1000013411045,-16.3999992549419,0.));
#688=CARTESIAN_POINT('',(-23.4500013411045,-16.3999992549419,4.));
#689=CARTESIAN_POINT('',(-23.4500013411045,-16.3999992549419,0.));
#690=CARTESIAN_POINT('Origin',(-21.1000013411045,-16.3999992549419,4.));
#691=CARTESIAN_POINT('Origin',(-21.1000013411045,-16.3999992549419,4.));
#692=CARTESIAN_POINT('Origin',(-21.1000013411045,50.0000007450581,0.));
#693=CARTESIAN_POINT('',(-23.4500013411045,50.0000007450581,0.));
#694=CARTESIAN_POINT('Origin',(-21.1000013411045,50.0000007450581,0.));
#695=CARTESIAN_POINT('',(-23.4500013411045,50.0000007450581,4.));
#696=CARTESIAN_POINT('',(-23.4500013411045,50.0000007450581,0.));
#697=CARTESIAN_POINT('Origin',(-21.1000013411045,50.0000007450581,4.));
#698=CARTESIAN_POINT('Origin',(-21.1000013411045,50.0000007450581,4.));
#699=CARTESIAN_POINT('Origin',(-90.0000013411045,-16.3999992549419,0.));
#700=CARTESIAN_POINT('',(-92.3500013411045,-16.3999992549419,0.));
#701=CARTESIAN_POINT('Origin',(-90.0000013411045,-16.3999992549419,0.));
#702=CARTESIAN_POINT('',(-92.3500013411045,-16.3999992549419,4.));
#703=CARTESIAN_POINT('',(-92.3500013411045,-16.3999992549419,0.));
#704=CARTESIAN_POINT('Origin',(-90.0000013411045,-16.3999992549419,4.));
#705=CARTESIAN_POINT('Origin',(-90.0000013411045,-16.3999992549419,4.));
#706=CARTESIAN_POINT('Origin',(-81.5000014156103,2.00000002980232,8.00000004470348));
#707=CARTESIAN_POINT('',(-85.,2.00000002980232,3.));
#708=CARTESIAN_POINT('',(-85.,2.00000002980232,13.0000000447035));
#709=CARTESIAN_POINT('',(-85.,2.00000002980232,4.00000002235174));
#710=CARTESIAN_POINT('',(-95.0000014156103,2.00000002980232,3.00000004470348));
#711=CARTESIAN_POINT('',(-81.5000014156103,2.00000002980232,3.00000004470348));
#712=CARTESIAN_POINT('',(-95.0000014156103,2.00000002980232,13.0000000447035));
#713=CARTESIAN_POINT('',(-95.0000014156103,2.00000002980232,4.00000002235174));
#714=CARTESIAN_POINT('',(-68.5250014156103,2.00000002980232,13.));
#715=CARTESIAN_POINT('Origin',(-81.5000014156103,28.0000000298023,8.00000004470348));
#716=CARTESIAN_POINT('',(-85.,28.0000000298023,13.0000000447035));
#717=CARTESIAN_POINT('',(-85.,28.0000000298023,3.));
#718=CARTESIAN_POINT('',(-85.,28.0000000298023,4.00000002235174));
#719=CARTESIAN_POINT('',(-95.0000014156103,28.0000000298023,13.0000000447035));
#720=CARTESIAN_POINT('',(-68.5250014156103,28.0000000298023,13.));
#721=CARTESIAN_POINT('',(-95.0000014156103,28.0000000298023,3.00000004470348));
#722=CARTESIAN_POINT('',(-95.0000014156103,28.0000000298023,4.00000002235174));
#723=CARTESIAN_POINT('',(-81.5000014156103,28.0000000298023,3.00000004470348));
#724=CARTESIAN_POINT('Origin',(-85.,-11.4,0.));
#725=CARTESIAN_POINT('',(-85.,45.,3.));
#726=CARTESIAN_POINT('',(-85.,1.3,3.));
#727=CARTESIAN_POINT('',(-85.,45.,13.));
#728=CARTESIAN_POINT('',(-85.,45.,0.));
#729=CARTESIAN_POINT('',(-85.,-11.4,13.));
#730=CARTESIAN_POINT('Origin',(-85.,-11.4,0.));
#731=CARTESIAN_POINT('',(-85.,-11.4,13.));
#732=CARTESIAN_POINT('',(-85.,-11.4,13.));
#733=CARTESIAN_POINT('',(-85.,-11.4,3.));
#734=CARTESIAN_POINT('',(-85.,-11.4,0.));
#735=CARTESIAN_POINT('',(-85.,1.3,3.));
#736=CARTESIAN_POINT('Origin',(-55.5500014156103,16.8000008195639,13.));
#737=CARTESIAN_POINT('',(-95.0000014156103,-21.3999991804361,13.));
#738=CARTESIAN_POINT('',(-95.0000014156103,-21.3999991804361,13.));
#739=CARTESIAN_POINT('',(-16.1000014156103,-21.3999991804361,13.));
#740=CARTESIAN_POINT('',(-16.1000014156103,-21.3999991804361,13.));
#741=CARTESIAN_POINT('',(-16.1000014156103,55.0000008195639,13.));
#742=CARTESIAN_POINT('',(-16.1000014156103,55.0000008195639,13.));
#743=CARTESIAN_POINT('',(-95.0000014156103,55.0000008195639,13.));
#744=CARTESIAN_POINT('',(-95.0000014156103,55.0000008195639,13.));
#745=CARTESIAN_POINT('',(-95.0000014156103,-21.3999991804361,13.));
#746=CARTESIAN_POINT('',(-26.1,45.,13.));
#747=CARTESIAN_POINT('',(-85.,45.,13.));
#748=CARTESIAN_POINT('',(-26.1,-11.4,13.));
#749=CARTESIAN_POINT('',(-26.1,45.,13.));
#750=CARTESIAN_POINT('',(-26.1,-11.4,13.));
#751=CARTESIAN_POINT('Origin',(-55.55,14.,3.));
#752=CARTESIAN_POINT('',(-26.1,-11.4,3.));
#753=CARTESIAN_POINT('',(-40.825,-11.4,3.));
#754=CARTESIAN_POINT('',(-26.1,45.,3.));
#755=CARTESIAN_POINT('',(-26.1,29.5,3.));
#756=CARTESIAN_POINT('',(-70.275,45.,3.));
#757=CARTESIAN_POINT('',(-95.0000014156103,35.0000004246831,3.00000004470348));
#758=CARTESIAN_POINT('Origin',(-85.,45.,0.));
#759=CARTESIAN_POINT('',(-26.1,45.,0.));
#760=CARTESIAN_POINT('Origin',(-55.5500014156103,16.8000008195639,0.));
#761=CARTESIAN_POINT('',(-16.1000014156103,-21.3999991804361,0.));
#762=CARTESIAN_POINT('',(-95.0000014156103,-21.3999991804361,0.));
#763=CARTESIAN_POINT('',(-16.1000014156103,-21.3999991804361,0.));
#764=CARTESIAN_POINT('',(-95.0000014156103,55.0000008195639,0.));
#765=CARTESIAN_POINT('',(-95.0000014156103,-21.3999991804361,0.));
#766=CARTESIAN_POINT('',(-16.1000014156103,55.0000008195639,0.));
#767=CARTESIAN_POINT('',(-95.0000014156103,55.0000008195639,0.));
#768=CARTESIAN_POINT('',(-16.1000014156103,55.0000008195639,0.));
#769=CARTESIAN_POINT('Origin',(-26.1,45.,0.));
#770=CARTESIAN_POINT('',(-26.1,-11.4,0.));
#771=CARTESIAN_POINT('Origin',(-26.1,-11.4,0.));
#772=CARTESIAN_POINT('Origin',(-95.0000014156103,55.0000008195639,0.));
#773=CARTESIAN_POINT('',(-95.0000014156103,55.0000008195639,0.));
#774=CARTESIAN_POINT('',(-95.0000014156103,-21.3999991804361,0.));
#775=CARTESIAN_POINT('Origin',(-16.1000014156103,55.0000008195639,0.));
#776=CARTESIAN_POINT('',(-16.1000014156103,55.0000008195639,0.));
#777=CARTESIAN_POINT('Origin',(-16.1000014156103,-21.3999991804361,0.));
#778=CARTESIAN_POINT('',(-16.1000014156103,-21.3999991804361,0.));
#779=CARTESIAN_POINT('Origin',(-95.0000014156103,-21.3999991804361,0.));
#780=UNCERTAINTY_MEASURE_WITH_UNIT(LENGTH_MEASURE(0.01),#784,
'DISTANCE_ACCURACY_VALUE',
'Maximum model space distance between geometric entities at asserted c
onnectivities');
#781=UNCERTAINTY_MEASURE_WITH_UNIT(LENGTH_MEASURE(0.01),#784,
'DISTANCE_ACCURACY_VALUE',
'Maximum model space distance between geometric entities at asserted c
onnectivities');
#782=(
GEOMETRIC_REPRESENTATION_CONTEXT(3)
GLOBAL_UNCERTAINTY_ASSIGNED_CONTEXT((#780))
GLOBAL_UNIT_ASSIGNED_CONTEXT((#784,#786,#787))
REPRESENTATION_CONTEXT('','3D')
);
#783=(
GEOMETRIC_REPRESENTATION_CONTEXT(3)
GLOBAL_UNCERTAINTY_ASSIGNED_CONTEXT((#781))
GLOBAL_UNIT_ASSIGNED_CONTEXT((#784,#786,#787))
REPRESENTATION_CONTEXT('','3D')
);
#784=(
LENGTH_UNIT()
NAMED_UNIT(*)
SI_UNIT(.MILLI.,.METRE.)
);
#785=(
LENGTH_UNIT()
NAMED_UNIT(*)
SI_UNIT($,.METRE.)
);
#786=(
NAMED_UNIT(*)
PLANE_ANGLE_UNIT()
SI_UNIT($,.RADIAN.)
);
#787=(
NAMED_UNIT(*)
SI_UNIT($,.STERADIAN.)
SOLID_ANGLE_UNIT()
);
#788=SHAPE_DEFINITION_REPRESENTATION(#789,#790);
#789=PRODUCT_DEFINITION_SHAPE('',$,#792);
#790=SHAPE_REPRESENTATION('',(#480),#782);
#791=PRODUCT_DEFINITION_CONTEXT('part definition',#796,'design');
#792=PRODUCT_DEFINITION('Bottom','Bottom v1',#793,#791);
#793=PRODUCT_DEFINITION_FORMATION('',$,#798);
#794=PRODUCT_RELATED_PRODUCT_CATEGORY('Bottom v1','Bottom v1',(#798));
#795=APPLICATION_PROTOCOL_DEFINITION('international standard',
'automotive_design',2009,#796);
#796=APPLICATION_CONTEXT(
'Core Data for Automotive Mechanical Design Process');
#797=PRODUCT_CONTEXT('part definition',#796,'mechanical');
#798=PRODUCT('Bottom','Bottom v1',$,(#797));
#799=PRESENTATION_STYLE_ASSIGNMENT((#800));
#800=SURFACE_STYLE_USAGE(.BOTH.,#801);
#801=SURFACE_SIDE_STYLE('',(#802));
#802=SURFACE_STYLE_FILL_AREA(#803);
#803=FILL_AREA_STYLE('Steel - Satin',(#804));
#804=FILL_AREA_STYLE_COLOUR('Steel - Satin',#805);
#805=COLOUR_RGB('Steel - Satin',0.627450980392157,0.627450980392157,0.627450980392157);
ENDSEC;
END-ISO-10303-21;
