ISO-10303-21;
HEADER;
/* Generated by software containing ST-Developer
 * from STEP Tools, Inc. (www.steptools.com) 
 */

FILE_DESCRIPTION(
/* description */ (''),
/* implementation_level */ '2;1');

FILE_NAME(
/* name */ 'Top.step',
/* time_stamp */ '2026-06-02T21:35:09+10:00',
/* author */ (''),
/* organization */ (''),
/* preprocessor_version */ 'ST-DEVELOPER v20.1',
/* originating_system */ 'Autodesk Translation Framework v15.8.0.0',
/* authorisation */ '');

FILE_SCHEMA (('AUTOMOTIVE_DESIGN { 1 0 10303 214 3 1 1 }'));
ENDSEC;

DATA;
#10=MECHANICAL_DESIGN_GEOMETRIC_PRESENTATION_REPRESENTATION('',(#13),#1995);
#11=SHAPE_REPRESENTATION_RELATIONSHIP('SRR','None',#2002,#12);
#12=ADVANCED_BREP_SHAPE_REPRESENTATION('',(#14),#1994);
#13=STYLED_ITEM('',(#2011),#14);
#14=MANIFOLD_SOLID_BREP('Body1',#1183);
#15=FACE_BOUND('',#180,.T.);
#16=FACE_BOUND('',#181,.T.);
#17=FACE_BOUND('',#182,.T.);
#18=FACE_BOUND('',#183,.T.);
#19=FACE_BOUND('',#184,.T.);
#20=FACE_BOUND('',#185,.T.);
#21=FACE_BOUND('',#186,.T.);
#22=FACE_BOUND('',#187,.T.);
#23=FACE_BOUND('',#188,.T.);
#24=FACE_BOUND('',#189,.T.);
#25=FACE_BOUND('',#191,.T.);
#26=FACE_BOUND('',#192,.T.);
#27=FACE_BOUND('',#193,.T.);
#28=FACE_BOUND('',#194,.T.);
#29=FACE_BOUND('',#195,.T.);
#30=FACE_BOUND('',#196,.T.);
#31=FACE_BOUND('',#197,.T.);
#32=FACE_BOUND('',#198,.T.);
#33=FACE_BOUND('',#199,.T.);
#34=FACE_BOUND('',#200,.T.);
#35=PLANE('',#1212);
#36=PLANE('',#1216);
#37=PLANE('',#1220);
#38=PLANE('',#1224);
#39=PLANE('',#1228);
#40=PLANE('',#1232);
#41=PLANE('',#1236);
#42=PLANE('',#1240);
#43=PLANE('',#1244);
#44=PLANE('',#1248);
#45=PLANE('',#1252);
#46=PLANE('',#1256);
#47=PLANE('',#1260);
#48=PLANE('',#1264);
#49=PLANE('',#1268);
#50=PLANE('',#1272);
#51=PLANE('',#1276);
#52=PLANE('',#1280);
#53=PLANE('',#1284);
#54=PLANE('',#1288);
#55=PLANE('',#1292);
#56=PLANE('',#1296);
#57=PLANE('',#1300);
#58=PLANE('',#1304);
#59=PLANE('',#1305);
#60=PLANE('',#1306);
#61=PLANE('',#1307);
#62=PLANE('',#1308);
#63=PLANE('',#1309);
#64=PLANE('',#1310);
#65=FACE_OUTER_BOUND('',#123,.T.);
#66=FACE_OUTER_BOUND('',#124,.T.);
#67=FACE_OUTER_BOUND('',#125,.T.);
#68=FACE_OUTER_BOUND('',#126,.T.);
#69=FACE_OUTER_BOUND('',#127,.T.);
#70=FACE_OUTER_BOUND('',#128,.T.);
#71=FACE_OUTER_BOUND('',#129,.T.);
#72=FACE_OUTER_BOUND('',#130,.T.);
#73=FACE_OUTER_BOUND('',#131,.T.);
#74=FACE_OUTER_BOUND('',#132,.T.);
#75=FACE_OUTER_BOUND('',#133,.T.);
#76=FACE_OUTER_BOUND('',#134,.T.);
#77=FACE_OUTER_BOUND('',#135,.T.);
#78=FACE_OUTER_BOUND('',#136,.T.);
#79=FACE_OUTER_BOUND('',#137,.T.);
#80=FACE_OUTER_BOUND('',#138,.T.);
#81=FACE_OUTER_BOUND('',#139,.T.);
#82=FACE_OUTER_BOUND('',#140,.T.);
#83=FACE_OUTER_BOUND('',#141,.T.);
#84=FACE_OUTER_BOUND('',#142,.T.);
#85=FACE_OUTER_BOUND('',#143,.T.);
#86=FACE_OUTER_BOUND('',#144,.T.);
#87=FACE_OUTER_BOUND('',#145,.T.);
#88=FACE_OUTER_BOUND('',#146,.T.);
#89=FACE_OUTER_BOUND('',#147,.T.);
#90=FACE_OUTER_BOUND('',#148,.T.);
#91=FACE_OUTER_BOUND('',#149,.T.);
#92=FACE_OUTER_BOUND('',#150,.T.);
#93=FACE_OUTER_BOUND('',#151,.T.);
#94=FACE_OUTER_BOUND('',#152,.T.);
#95=FACE_OUTER_BOUND('',#153,.T.);
#96=FACE_OUTER_BOUND('',#154,.T.);
#97=FACE_OUTER_BOUND('',#155,.T.);
#98=FACE_OUTER_BOUND('',#156,.T.);
#99=FACE_OUTER_BOUND('',#157,.T.);
#100=FACE_OUTER_BOUND('',#158,.T.);
#101=FACE_OUTER_BOUND('',#159,.T.);
#102=FACE_OUTER_BOUND('',#160,.T.);
#103=FACE_OUTER_BOUND('',#161,.T.);
#104=FACE_OUTER_BOUND('',#162,.T.);
#105=FACE_OUTER_BOUND('',#163,.T.);
#106=FACE_OUTER_BOUND('',#164,.T.);
#107=FACE_OUTER_BOUND('',#165,.T.);
#108=FACE_OUTER_BOUND('',#166,.T.);
#109=FACE_OUTER_BOUND('',#167,.T.);
#110=FACE_OUTER_BOUND('',#168,.T.);
#111=FACE_OUTER_BOUND('',#169,.T.);
#112=FACE_OUTER_BOUND('',#170,.T.);
#113=FACE_OUTER_BOUND('',#171,.T.);
#114=FACE_OUTER_BOUND('',#172,.T.);
#115=FACE_OUTER_BOUND('',#173,.T.);
#116=FACE_OUTER_BOUND('',#174,.T.);
#117=FACE_OUTER_BOUND('',#175,.T.);
#118=FACE_OUTER_BOUND('',#176,.T.);
#119=FACE_OUTER_BOUND('',#177,.T.);
#120=FACE_OUTER_BOUND('',#178,.T.);
#121=FACE_OUTER_BOUND('',#179,.T.);
#122=FACE_OUTER_BOUND('',#190,.T.);
#123=EDGE_LOOP('',(#761,#762,#763,#764));
#124=EDGE_LOOP('',(#765,#766,#767,#768));
#125=EDGE_LOOP('',(#769,#770,#771,#772));
#126=EDGE_LOOP('',(#773,#774,#775,#776));
#127=EDGE_LOOP('',(#777,#778,#779,#780));
#128=EDGE_LOOP('',(#781,#782,#783,#784));
#129=EDGE_LOOP('',(#785,#786,#787,#788));
#130=EDGE_LOOP('',(#789,#790,#791,#792));
#131=EDGE_LOOP('',(#793,#794,#795,#796));
#132=EDGE_LOOP('',(#797,#798,#799,#800));
#133=EDGE_LOOP('',(#801,#802,#803,#804));
#134=EDGE_LOOP('',(#805,#806,#807,#808));
#135=EDGE_LOOP('',(#809,#810,#811,#812));
#136=EDGE_LOOP('',(#813,#814,#815,#816));
#137=EDGE_LOOP('',(#817,#818,#819,#820));
#138=EDGE_LOOP('',(#821,#822,#823,#824));
#139=EDGE_LOOP('',(#825,#826,#827,#828));
#140=EDGE_LOOP('',(#829,#830,#831,#832));
#141=EDGE_LOOP('',(#833,#834,#835,#836));
#142=EDGE_LOOP('',(#837,#838,#839,#840));
#143=EDGE_LOOP('',(#841,#842,#843,#844));
#144=EDGE_LOOP('',(#845,#846,#847,#848));
#145=EDGE_LOOP('',(#849,#850,#851,#852));
#146=EDGE_LOOP('',(#853,#854,#855,#856));
#147=EDGE_LOOP('',(#857,#858,#859,#860));
#148=EDGE_LOOP('',(#861,#862,#863,#864));
#149=EDGE_LOOP('',(#865,#866,#867,#868));
#150=EDGE_LOOP('',(#869,#870,#871,#872));
#151=EDGE_LOOP('',(#873,#874,#875,#876));
#152=EDGE_LOOP('',(#877,#878,#879,#880));
#153=EDGE_LOOP('',(#881,#882,#883,#884));
#154=EDGE_LOOP('',(#885,#886,#887,#888));
#155=EDGE_LOOP('',(#889,#890,#891,#892));
#156=EDGE_LOOP('',(#893,#894,#895,#896));
#157=EDGE_LOOP('',(#897,#898,#899,#900));
#158=EDGE_LOOP('',(#901,#902,#903,#904));
#159=EDGE_LOOP('',(#905,#906,#907,#908));
#160=EDGE_LOOP('',(#909,#910,#911,#912));
#161=EDGE_LOOP('',(#913,#914,#915,#916));
#162=EDGE_LOOP('',(#917,#918,#919,#920));
#163=EDGE_LOOP('',(#921,#922,#923,#924));
#164=EDGE_LOOP('',(#925,#926,#927,#928));
#165=EDGE_LOOP('',(#929,#930,#931,#932));
#166=EDGE_LOOP('',(#933,#934,#935,#936));
#167=EDGE_LOOP('',(#937,#938,#939,#940));
#168=EDGE_LOOP('',(#941,#942,#943,#944));
#169=EDGE_LOOP('',(#945,#946,#947,#948));
#170=EDGE_LOOP('',(#949,#950,#951,#952));
#171=EDGE_LOOP('',(#953,#954,#955,#956));
#172=EDGE_LOOP('',(#957,#958,#959,#960));
#173=EDGE_LOOP('',(#961,#962,#963,#964));
#174=EDGE_LOOP('',(#965,#966,#967,#968));
#175=EDGE_LOOP('',(#969,#970,#971,#972));
#176=EDGE_LOOP('',(#973,#974,#975,#976));
#177=EDGE_LOOP('',(#977,#978,#979,#980));
#178=EDGE_LOOP('',(#981,#982,#983,#984));
#179=EDGE_LOOP('',(#985,#986,#987,#988));
#180=EDGE_LOOP('',(#989));
#181=EDGE_LOOP('',(#990,#991,#992,#993,#994,#995,#996,#997));
#182=EDGE_LOOP('',(#998,#999,#1000,#1001,#1002,#1003,#1004,#1005));
#183=EDGE_LOOP('',(#1006,#1007,#1008,#1009,#1010,#1011,#1012,#1013));
#184=EDGE_LOOP('',(#1014,#1015,#1016,#1017,#1018,#1019,#1020,#1021));
#185=EDGE_LOOP('',(#1022,#1023,#1024,#1025,#1026,#1027,#1028,#1029));
#186=EDGE_LOOP('',(#1030,#1031,#1032,#1033,#1034,#1035,#1036,#1037));
#187=EDGE_LOOP('',(#1038));
#188=EDGE_LOOP('',(#1039));
#189=EDGE_LOOP('',(#1040));
#190=EDGE_LOOP('',(#1041,#1042,#1043,#1044));
#191=EDGE_LOOP('',(#1045));
#192=EDGE_LOOP('',(#1046,#1047,#1048,#1049,#1050,#1051,#1052,#1053));
#193=EDGE_LOOP('',(#1054,#1055,#1056,#1057,#1058,#1059,#1060,#1061));
#194=EDGE_LOOP('',(#1062,#1063,#1064,#1065,#1066,#1067,#1068,#1069));
#195=EDGE_LOOP('',(#1070,#1071,#1072,#1073,#1074,#1075,#1076,#1077));
#196=EDGE_LOOP('',(#1078,#1079,#1080,#1081,#1082,#1083,#1084,#1085));
#197=EDGE_LOOP('',(#1086,#1087,#1088,#1089,#1090,#1091,#1092,#1093));
#198=EDGE_LOOP('',(#1094));
#199=EDGE_LOOP('',(#1095));
#200=EDGE_LOOP('',(#1096));
#201=LINE('',#1658,#313);
#202=LINE('',#1664,#314);
#203=LINE('',#1670,#315);
#204=LINE('',#1676,#316);
#205=LINE('',#1683,#317);
#206=LINE('',#1686,#318);
#207=LINE('',#1689,#319);
#208=LINE('',#1691,#320);
#209=LINE('',#1692,#321);
#210=LINE('',#1698,#322);
#211=LINE('',#1701,#323);
#212=LINE('',#1703,#324);
#213=LINE('',#1704,#325);
#214=LINE('',#1710,#326);
#215=LINE('',#1713,#327);
#216=LINE('',#1715,#328);
#217=LINE('',#1716,#329);
#218=LINE('',#1722,#330);
#219=LINE('',#1724,#331);
#220=LINE('',#1725,#332);
#221=LINE('',#1731,#333);
#222=LINE('',#1734,#334);
#223=LINE('',#1737,#335);
#224=LINE('',#1739,#336);
#225=LINE('',#1740,#337);
#226=LINE('',#1746,#338);
#227=LINE('',#1749,#339);
#228=LINE('',#1751,#340);
#229=LINE('',#1752,#341);
#230=LINE('',#1758,#342);
#231=LINE('',#1761,#343);
#232=LINE('',#1763,#344);
#233=LINE('',#1764,#345);
#234=LINE('',#1770,#346);
#235=LINE('',#1772,#347);
#236=LINE('',#1773,#348);
#237=LINE('',#1779,#349);
#238=LINE('',#1782,#350);
#239=LINE('',#1785,#351);
#240=LINE('',#1787,#352);
#241=LINE('',#1788,#353);
#242=LINE('',#1794,#354);
#243=LINE('',#1797,#355);
#244=LINE('',#1799,#356);
#245=LINE('',#1800,#357);
#246=LINE('',#1806,#358);
#247=LINE('',#1809,#359);
#248=LINE('',#1811,#360);
#249=LINE('',#1812,#361);
#250=LINE('',#1818,#362);
#251=LINE('',#1820,#363);
#252=LINE('',#1821,#364);
#253=LINE('',#1827,#365);
#254=LINE('',#1830,#366);
#255=LINE('',#1833,#367);
#256=LINE('',#1835,#368);
#257=LINE('',#1836,#369);
#258=LINE('',#1842,#370);
#259=LINE('',#1845,#371);
#260=LINE('',#1847,#372);
#261=LINE('',#1848,#373);
#262=LINE('',#1854,#374);
#263=LINE('',#1857,#375);
#264=LINE('',#1859,#376);
#265=LINE('',#1860,#377);
#266=LINE('',#1866,#378);
#267=LINE('',#1868,#379);
#268=LINE('',#1869,#380);
#269=LINE('',#1875,#381);
#270=LINE('',#1878,#382);
#271=LINE('',#1881,#383);
#272=LINE('',#1883,#384);
#273=LINE('',#1884,#385);
#274=LINE('',#1890,#386);
#275=LINE('',#1893,#387);
#276=LINE('',#1895,#388);
#277=LINE('',#1896,#389);
#278=LINE('',#1902,#390);
#279=LINE('',#1905,#391);
#280=LINE('',#1907,#392);
#281=LINE('',#1908,#393);
#282=LINE('',#1914,#394);
#283=LINE('',#1916,#395);
#284=LINE('',#1917,#396);
#285=LINE('',#1923,#397);
#286=LINE('',#1926,#398);
#287=LINE('',#1929,#399);
#288=LINE('',#1931,#400);
#289=LINE('',#1932,#401);
#290=LINE('',#1938,#402);
#291=LINE('',#1941,#403);
#292=LINE('',#1943,#404);
#293=LINE('',#1944,#405);
#294=LINE('',#1950,#406);
#295=LINE('',#1953,#407);
#296=LINE('',#1955,#408);
#297=LINE('',#1956,#409);
#298=LINE('',#1962,#410);
#299=LINE('',#1964,#411);
#300=LINE('',#1965,#412);
#301=LINE('',#1969,#413);
#302=LINE('',#1971,#414);
#303=LINE('',#1973,#415);
#304=LINE('',#1974,#416);
#305=LINE('',#1977,#417);
#306=LINE('',#1979,#418);
#307=LINE('',#1980,#419);
#308=LINE('',#1983,#420);
#309=LINE('',#1985,#421);
#310=LINE('',#1986,#422);
#311=LINE('',#1988,#423);
#312=LINE('',#1989,#424);
#313=VECTOR('',#1317,1.7);
#314=VECTOR('',#1324,1.7);
#315=VECTOR('',#1331,1.7);
#316=VECTOR('',#1338,1.7);
#317=VECTOR('',#1345,10.);
#318=VECTOR('',#1348,10.);
#319=VECTOR('',#1351,10.);
#320=VECTOR('',#1352,10.);
#321=VECTOR('',#1353,10.);
#322=VECTOR('',#1360,10.);
#323=VECTOR('',#1363,10.);
#324=VECTOR('',#1364,10.);
#325=VECTOR('',#1365,10.);
#326=VECTOR('',#1372,10.);
#327=VECTOR('',#1375,10.);
#328=VECTOR('',#1376,10.);
#329=VECTOR('',#1377,10.);
#330=VECTOR('',#1384,10.);
#331=VECTOR('',#1387,10.);
#332=VECTOR('',#1388,10.);
#333=VECTOR('',#1393,10.);
#334=VECTOR('',#1396,10.);
#335=VECTOR('',#1399,10.);
#336=VECTOR('',#1400,10.);
#337=VECTOR('',#1401,10.);
#338=VECTOR('',#1408,10.);
#339=VECTOR('',#1411,10.);
#340=VECTOR('',#1412,10.);
#341=VECTOR('',#1413,10.);
#342=VECTOR('',#1420,10.);
#343=VECTOR('',#1423,10.);
#344=VECTOR('',#1424,10.);
#345=VECTOR('',#1425,10.);
#346=VECTOR('',#1432,10.);
#347=VECTOR('',#1435,10.);
#348=VECTOR('',#1436,10.);
#349=VECTOR('',#1441,10.);
#350=VECTOR('',#1444,10.);
#351=VECTOR('',#1447,10.);
#352=VECTOR('',#1448,10.);
#353=VECTOR('',#1449,10.);
#354=VECTOR('',#1456,10.);
#355=VECTOR('',#1459,10.);
#356=VECTOR('',#1460,10.);
#357=VECTOR('',#1461,10.);
#358=VECTOR('',#1468,10.);
#359=VECTOR('',#1471,10.);
#360=VECTOR('',#1472,10.);
#361=VECTOR('',#1473,10.);
#362=VECTOR('',#1480,10.);
#363=VECTOR('',#1483,10.);
#364=VECTOR('',#1484,10.);
#365=VECTOR('',#1489,10.);
#366=VECTOR('',#1492,10.);
#367=VECTOR('',#1495,10.);
#368=VECTOR('',#1496,10.);
#369=VECTOR('',#1497,10.);
#370=VECTOR('',#1504,10.);
#371=VECTOR('',#1507,10.);
#372=VECTOR('',#1508,10.);
#373=VECTOR('',#1509,10.);
#374=VECTOR('',#1516,10.);
#375=VECTOR('',#1519,10.);
#376=VECTOR('',#1520,10.);
#377=VECTOR('',#1521,10.);
#378=VECTOR('',#1528,10.);
#379=VECTOR('',#1531,10.);
#380=VECTOR('',#1532,10.);
#381=VECTOR('',#1537,10.);
#382=VECTOR('',#1540,10.);
#383=VECTOR('',#1543,10.);
#384=VECTOR('',#1544,10.);
#385=VECTOR('',#1545,10.);
#386=VECTOR('',#1552,10.);
#387=VECTOR('',#1555,10.);
#388=VECTOR('',#1556,10.);
#389=VECTOR('',#1557,10.);
#390=VECTOR('',#1564,10.);
#391=VECTOR('',#1567,10.);
#392=VECTOR('',#1568,10.);
#393=VECTOR('',#1569,10.);
#394=VECTOR('',#1576,10.);
#395=VECTOR('',#1579,10.);
#396=VECTOR('',#1580,10.);
#397=VECTOR('',#1585,10.);
#398=VECTOR('',#1588,10.);
#399=VECTOR('',#1591,10.);
#400=VECTOR('',#1592,10.);
#401=VECTOR('',#1593,10.);
#402=VECTOR('',#1600,10.);
#403=VECTOR('',#1603,10.);
#404=VECTOR('',#1604,10.);
#405=VECTOR('',#1605,10.);
#406=VECTOR('',#1612,10.);
#407=VECTOR('',#1615,10.);
#408=VECTOR('',#1616,10.);
#409=VECTOR('',#1617,10.);
#410=VECTOR('',#1624,10.);
#411=VECTOR('',#1627,10.);
#412=VECTOR('',#1628,10.);
#413=VECTOR('',#1631,10.);
#414=VECTOR('',#1632,10.);
#415=VECTOR('',#1633,10.);
#416=VECTOR('',#1634,10.);
#417=VECTOR('',#1637,10.);
#418=VECTOR('',#1638,10.);
#419=VECTOR('',#1639,10.);
#420=VECTOR('',#1642,10.);
#421=VECTOR('',#1643,10.);
#422=VECTOR('',#1644,10.);
#423=VECTOR('',#1647,10.);
#424=VECTOR('',#1648,10.);
#425=CIRCLE('',#1198,1.7);
#426=CIRCLE('',#1199,1.7);
#427=CIRCLE('',#1201,1.7);
#428=CIRCLE('',#1202,1.7);
#429=CIRCLE('',#1204,1.7);
#430=CIRCLE('',#1205,1.7);
#431=CIRCLE('',#1207,1.7);
#432=CIRCLE('',#1208,1.7);
#433=CIRCLE('',#1210,0.499999999999998);
#434=CIRCLE('',#1211,0.499999999999998);
#435=CIRCLE('',#1214,0.499999999999998);
#436=CIRCLE('',#1215,0.499999999999998);
#437=CIRCLE('',#1218,0.500000000000003);
#438=CIRCLE('',#1219,0.500000000000003);
#439=CIRCLE('',#1222,0.499999999999998);
#440=CIRCLE('',#1223,0.499999999999998);
#441=CIRCLE('',#1226,0.499999999999998);
#442=CIRCLE('',#1227,0.499999999999998);
#443=CIRCLE('',#1230,0.499999999999998);
#444=CIRCLE('',#1231,0.499999999999998);
#445=CIRCLE('',#1234,0.500000000000003);
#446=CIRCLE('',#1235,0.500000000000003);
#447=CIRCLE('',#1238,0.500000000000003);
#448=CIRCLE('',#1239,0.500000000000003);
#449=CIRCLE('',#1242,0.499999999999998);
#450=CIRCLE('',#1243,0.499999999999998);
#451=CIRCLE('',#1246,0.5);
#452=CIRCLE('',#1247,0.5);
#453=CIRCLE('',#1250,0.500000000000003);
#454=CIRCLE('',#1251,0.500000000000003);
#455=CIRCLE('',#1254,0.499999999999998);
#456=CIRCLE('',#1255,0.499999999999998);
#457=CIRCLE('',#1258,0.5);
#458=CIRCLE('',#1259,0.5);
#459=CIRCLE('',#1262,0.499999999999998);
#460=CIRCLE('',#1263,0.499999999999998);
#461=CIRCLE('',#1266,0.499999999999998);
#462=CIRCLE('',#1267,0.499999999999998);
#463=CIRCLE('',#1270,0.499999999999998);
#464=CIRCLE('',#1271,0.499999999999998);
#465=CIRCLE('',#1274,0.5);
#466=CIRCLE('',#1275,0.5);
#467=CIRCLE('',#1278,0.499999999999998);
#468=CIRCLE('',#1279,0.499999999999998);
#469=CIRCLE('',#1282,0.499999999999998);
#470=CIRCLE('',#1283,0.499999999999998);
#471=CIRCLE('',#1286,0.500000000000003);
#472=CIRCLE('',#1287,0.500000000000003);
#473=CIRCLE('',#1290,0.5);
#474=CIRCLE('',#1291,0.5);
#475=CIRCLE('',#1294,0.5);
#476=CIRCLE('',#1295,0.5);
#477=CIRCLE('',#1298,0.499999999999998);
#478=CIRCLE('',#1299,0.499999999999998);
#479=CIRCLE('',#1302,0.499999999999998);
#480=CIRCLE('',#1303,0.499999999999998);
#481=VERTEX_POINT('',#1655);
#482=VERTEX_POINT('',#1657);
#483=VERTEX_POINT('',#1661);
#484=VERTEX_POINT('',#1663);
#485=VERTEX_POINT('',#1667);
#486=VERTEX_POINT('',#1669);
#487=VERTEX_POINT('',#1673);
#488=VERTEX_POINT('',#1675);
#489=VERTEX_POINT('',#1679);
#490=VERTEX_POINT('',#1680);
#491=VERTEX_POINT('',#1682);
#492=VERTEX_POINT('',#1684);
#493=VERTEX_POINT('',#1688);
#494=VERTEX_POINT('',#1690);
#495=VERTEX_POINT('',#1694);
#496=VERTEX_POINT('',#1696);
#497=VERTEX_POINT('',#1700);
#498=VERTEX_POINT('',#1702);
#499=VERTEX_POINT('',#1706);
#500=VERTEX_POINT('',#1708);
#501=VERTEX_POINT('',#1712);
#502=VERTEX_POINT('',#1714);
#503=VERTEX_POINT('',#1718);
#504=VERTEX_POINT('',#1720);
#505=VERTEX_POINT('',#1727);
#506=VERTEX_POINT('',#1728);
#507=VERTEX_POINT('',#1730);
#508=VERTEX_POINT('',#1732);
#509=VERTEX_POINT('',#1736);
#510=VERTEX_POINT('',#1738);
#511=VERTEX_POINT('',#1742);
#512=VERTEX_POINT('',#1744);
#513=VERTEX_POINT('',#1748);
#514=VERTEX_POINT('',#1750);
#515=VERTEX_POINT('',#1754);
#516=VERTEX_POINT('',#1756);
#517=VERTEX_POINT('',#1760);
#518=VERTEX_POINT('',#1762);
#519=VERTEX_POINT('',#1766);
#520=VERTEX_POINT('',#1768);
#521=VERTEX_POINT('',#1775);
#522=VERTEX_POINT('',#1776);
#523=VERTEX_POINT('',#1778);
#524=VERTEX_POINT('',#1780);
#525=VERTEX_POINT('',#1784);
#526=VERTEX_POINT('',#1786);
#527=VERTEX_POINT('',#1790);
#528=VERTEX_POINT('',#1792);
#529=VERTEX_POINT('',#1796);
#530=VERTEX_POINT('',#1798);
#531=VERTEX_POINT('',#1802);
#532=VERTEX_POINT('',#1804);
#533=VERTEX_POINT('',#1808);
#534=VERTEX_POINT('',#1810);
#535=VERTEX_POINT('',#1814);
#536=VERTEX_POINT('',#1816);
#537=VERTEX_POINT('',#1823);
#538=VERTEX_POINT('',#1824);
#539=VERTEX_POINT('',#1826);
#540=VERTEX_POINT('',#1828);
#541=VERTEX_POINT('',#1832);
#542=VERTEX_POINT('',#1834);
#543=VERTEX_POINT('',#1838);
#544=VERTEX_POINT('',#1840);
#545=VERTEX_POINT('',#1844);
#546=VERTEX_POINT('',#1846);
#547=VERTEX_POINT('',#1850);
#548=VERTEX_POINT('',#1852);
#549=VERTEX_POINT('',#1856);
#550=VERTEX_POINT('',#1858);
#551=VERTEX_POINT('',#1862);
#552=VERTEX_POINT('',#1864);
#553=VERTEX_POINT('',#1871);
#554=VERTEX_POINT('',#1872);
#555=VERTEX_POINT('',#1874);
#556=VERTEX_POINT('',#1876);
#557=VERTEX_POINT('',#1880);
#558=VERTEX_POINT('',#1882);
#559=VERTEX_POINT('',#1886);
#560=VERTEX_POINT('',#1888);
#561=VERTEX_POINT('',#1892);
#562=VERTEX_POINT('',#1894);
#563=VERTEX_POINT('',#1898);
#564=VERTEX_POINT('',#1900);
#565=VERTEX_POINT('',#1904);
#566=VERTEX_POINT('',#1906);
#567=VERTEX_POINT('',#1910);
#568=VERTEX_POINT('',#1912);
#569=VERTEX_POINT('',#1919);
#570=VERTEX_POINT('',#1920);
#571=VERTEX_POINT('',#1922);
#572=VERTEX_POINT('',#1924);
#573=VERTEX_POINT('',#1928);
#574=VERTEX_POINT('',#1930);
#575=VERTEX_POINT('',#1934);
#576=VERTEX_POINT('',#1936);
#577=VERTEX_POINT('',#1940);
#578=VERTEX_POINT('',#1942);
#579=VERTEX_POINT('',#1946);
#580=VERTEX_POINT('',#1948);
#581=VERTEX_POINT('',#1952);
#582=VERTEX_POINT('',#1954);
#583=VERTEX_POINT('',#1958);
#584=VERTEX_POINT('',#1960);
#585=VERTEX_POINT('',#1967);
#586=VERTEX_POINT('',#1968);
#587=VERTEX_POINT('',#1970);
#588=VERTEX_POINT('',#1972);
#589=VERTEX_POINT('',#1976);
#590=VERTEX_POINT('',#1978);
#591=VERTEX_POINT('',#1982);
#592=VERTEX_POINT('',#1984);
#593=EDGE_CURVE('',#481,#481,#425,.T.);
#594=EDGE_CURVE('',#481,#482,#201,.T.);
#595=EDGE_CURVE('',#482,#482,#426,.T.);
#596=EDGE_CURVE('',#483,#483,#427,.T.);
#597=EDGE_CURVE('',#483,#484,#202,.T.);
#598=EDGE_CURVE('',#484,#484,#428,.T.);
#599=EDGE_CURVE('',#485,#485,#429,.T.);
#600=EDGE_CURVE('',#485,#486,#203,.T.);
#601=EDGE_CURVE('',#486,#486,#430,.T.);
#602=EDGE_CURVE('',#487,#487,#431,.T.);
#603=EDGE_CURVE('',#487,#488,#204,.T.);
#604=EDGE_CURVE('',#488,#488,#432,.T.);
#605=EDGE_CURVE('',#489,#490,#433,.T.);
#606=EDGE_CURVE('',#489,#491,#205,.T.);
#607=EDGE_CURVE('',#492,#491,#434,.T.);
#608=EDGE_CURVE('',#490,#492,#206,.T.);
#609=EDGE_CURVE('',#490,#493,#207,.T.);
#610=EDGE_CURVE('',#494,#492,#208,.T.);
#611=EDGE_CURVE('',#493,#494,#209,.T.);
#612=EDGE_CURVE('',#493,#495,#435,.T.);
#613=EDGE_CURVE('',#496,#494,#436,.T.);
#614=EDGE_CURVE('',#495,#496,#210,.T.);
#615=EDGE_CURVE('',#495,#497,#211,.T.);
#616=EDGE_CURVE('',#498,#496,#212,.T.);
#617=EDGE_CURVE('',#497,#498,#213,.T.);
#618=EDGE_CURVE('',#497,#499,#437,.T.);
#619=EDGE_CURVE('',#500,#498,#438,.T.);
#620=EDGE_CURVE('',#499,#500,#214,.T.);
#621=EDGE_CURVE('',#501,#499,#215,.T.);
#622=EDGE_CURVE('',#502,#500,#216,.T.);
#623=EDGE_CURVE('',#501,#502,#217,.T.);
#624=EDGE_CURVE('',#501,#503,#439,.T.);
#625=EDGE_CURVE('',#504,#502,#440,.T.);
#626=EDGE_CURVE('',#503,#504,#218,.T.);
#627=EDGE_CURVE('',#489,#503,#219,.T.);
#628=EDGE_CURVE('',#491,#504,#220,.T.);
#629=EDGE_CURVE('',#505,#506,#441,.T.);
#630=EDGE_CURVE('',#505,#507,#221,.T.);
#631=EDGE_CURVE('',#508,#507,#442,.T.);
#632=EDGE_CURVE('',#506,#508,#222,.T.);
#633=EDGE_CURVE('',#506,#509,#223,.T.);
#634=EDGE_CURVE('',#510,#508,#224,.T.);
#635=EDGE_CURVE('',#509,#510,#225,.T.);
#636=EDGE_CURVE('',#509,#511,#443,.T.);
#637=EDGE_CURVE('',#512,#510,#444,.T.);
#638=EDGE_CURVE('',#511,#512,#226,.T.);
#639=EDGE_CURVE('',#511,#513,#227,.T.);
#640=EDGE_CURVE('',#514,#512,#228,.T.);
#641=EDGE_CURVE('',#513,#514,#229,.T.);
#642=EDGE_CURVE('',#513,#515,#445,.T.);
#643=EDGE_CURVE('',#516,#514,#446,.T.);
#644=EDGE_CURVE('',#515,#516,#230,.T.);
#645=EDGE_CURVE('',#517,#515,#231,.T.);
#646=EDGE_CURVE('',#518,#516,#232,.T.);
#647=EDGE_CURVE('',#517,#518,#233,.T.);
#648=EDGE_CURVE('',#517,#519,#447,.T.);
#649=EDGE_CURVE('',#520,#518,#448,.T.);
#650=EDGE_CURVE('',#519,#520,#234,.T.);
#651=EDGE_CURVE('',#505,#519,#235,.T.);
#652=EDGE_CURVE('',#507,#520,#236,.T.);
#653=EDGE_CURVE('',#521,#522,#449,.T.);
#654=EDGE_CURVE('',#521,#523,#237,.T.);
#655=EDGE_CURVE('',#524,#523,#450,.T.);
#656=EDGE_CURVE('',#522,#524,#238,.T.);
#657=EDGE_CURVE('',#522,#525,#239,.T.);
#658=EDGE_CURVE('',#526,#524,#240,.T.);
#659=EDGE_CURVE('',#525,#526,#241,.T.);
#660=EDGE_CURVE('',#525,#527,#451,.T.);
#661=EDGE_CURVE('',#528,#526,#452,.T.);
#662=EDGE_CURVE('',#527,#528,#242,.T.);
#663=EDGE_CURVE('',#527,#529,#243,.T.);
#664=EDGE_CURVE('',#530,#528,#244,.T.);
#665=EDGE_CURVE('',#529,#530,#245,.T.);
#666=EDGE_CURVE('',#529,#531,#453,.T.);
#667=EDGE_CURVE('',#532,#530,#454,.T.);
#668=EDGE_CURVE('',#531,#532,#246,.T.);
#669=EDGE_CURVE('',#533,#531,#247,.T.);
#670=EDGE_CURVE('',#534,#532,#248,.T.);
#671=EDGE_CURVE('',#533,#534,#249,.T.);
#672=EDGE_CURVE('',#533,#535,#455,.T.);
#673=EDGE_CURVE('',#536,#534,#456,.T.);
#674=EDGE_CURVE('',#535,#536,#250,.T.);
#675=EDGE_CURVE('',#521,#535,#251,.T.);
#676=EDGE_CURVE('',#523,#536,#252,.T.);
#677=EDGE_CURVE('',#537,#538,#457,.T.);
#678=EDGE_CURVE('',#537,#539,#253,.T.);
#679=EDGE_CURVE('',#540,#539,#458,.T.);
#680=EDGE_CURVE('',#538,#540,#254,.T.);
#681=EDGE_CURVE('',#538,#541,#255,.T.);
#682=EDGE_CURVE('',#542,#540,#256,.T.);
#683=EDGE_CURVE('',#541,#542,#257,.T.);
#684=EDGE_CURVE('',#541,#543,#459,.T.);
#685=EDGE_CURVE('',#544,#542,#460,.T.);
#686=EDGE_CURVE('',#543,#544,#258,.T.);
#687=EDGE_CURVE('',#543,#545,#259,.T.);
#688=EDGE_CURVE('',#546,#544,#260,.T.);
#689=EDGE_CURVE('',#545,#546,#261,.T.);
#690=EDGE_CURVE('',#545,#547,#461,.T.);
#691=EDGE_CURVE('',#548,#546,#462,.T.);
#692=EDGE_CURVE('',#547,#548,#262,.T.);
#693=EDGE_CURVE('',#549,#547,#263,.T.);
#694=EDGE_CURVE('',#550,#548,#264,.T.);
#695=EDGE_CURVE('',#549,#550,#265,.T.);
#696=EDGE_CURVE('',#549,#551,#463,.T.);
#697=EDGE_CURVE('',#552,#550,#464,.T.);
#698=EDGE_CURVE('',#551,#552,#266,.T.);
#699=EDGE_CURVE('',#537,#551,#267,.T.);
#700=EDGE_CURVE('',#539,#552,#268,.T.);
#701=EDGE_CURVE('',#553,#554,#465,.T.);
#702=EDGE_CURVE('',#553,#555,#269,.T.);
#703=EDGE_CURVE('',#556,#555,#466,.T.);
#704=EDGE_CURVE('',#554,#556,#270,.T.);
#705=EDGE_CURVE('',#554,#557,#271,.T.);
#706=EDGE_CURVE('',#558,#556,#272,.T.);
#707=EDGE_CURVE('',#557,#558,#273,.T.);
#708=EDGE_CURVE('',#557,#559,#467,.T.);
#709=EDGE_CURVE('',#560,#558,#468,.T.);
#710=EDGE_CURVE('',#559,#560,#274,.T.);
#711=EDGE_CURVE('',#559,#561,#275,.T.);
#712=EDGE_CURVE('',#562,#560,#276,.T.);
#713=EDGE_CURVE('',#561,#562,#277,.T.);
#714=EDGE_CURVE('',#561,#563,#469,.T.);
#715=EDGE_CURVE('',#564,#562,#470,.T.);
#716=EDGE_CURVE('',#563,#564,#278,.T.);
#717=EDGE_CURVE('',#565,#563,#279,.T.);
#718=EDGE_CURVE('',#566,#564,#280,.T.);
#719=EDGE_CURVE('',#565,#566,#281,.T.);
#720=EDGE_CURVE('',#565,#567,#471,.T.);
#721=EDGE_CURVE('',#568,#566,#472,.T.);
#722=EDGE_CURVE('',#567,#568,#282,.T.);
#723=EDGE_CURVE('',#553,#567,#283,.T.);
#724=EDGE_CURVE('',#555,#568,#284,.T.);
#725=EDGE_CURVE('',#569,#570,#473,.T.);
#726=EDGE_CURVE('',#569,#571,#285,.T.);
#727=EDGE_CURVE('',#572,#571,#474,.T.);
#728=EDGE_CURVE('',#570,#572,#286,.T.);
#729=EDGE_CURVE('',#570,#573,#287,.T.);
#730=EDGE_CURVE('',#574,#572,#288,.T.);
#731=EDGE_CURVE('',#573,#574,#289,.T.);
#732=EDGE_CURVE('',#573,#575,#475,.T.);
#733=EDGE_CURVE('',#576,#574,#476,.T.);
#734=EDGE_CURVE('',#575,#576,#290,.T.);
#735=EDGE_CURVE('',#575,#577,#291,.T.);
#736=EDGE_CURVE('',#578,#576,#292,.T.);
#737=EDGE_CURVE('',#577,#578,#293,.T.);
#738=EDGE_CURVE('',#577,#579,#477,.T.);
#739=EDGE_CURVE('',#580,#578,#478,.T.);
#740=EDGE_CURVE('',#579,#580,#294,.T.);
#741=EDGE_CURVE('',#581,#579,#295,.T.);
#742=EDGE_CURVE('',#582,#580,#296,.T.);
#743=EDGE_CURVE('',#581,#582,#297,.T.);
#744=EDGE_CURVE('',#581,#583,#479,.T.);
#745=EDGE_CURVE('',#584,#582,#480,.T.);
#746=EDGE_CURVE('',#583,#584,#298,.T.);
#747=EDGE_CURVE('',#569,#583,#299,.T.);
#748=EDGE_CURVE('',#571,#584,#300,.T.);
#749=EDGE_CURVE('',#585,#586,#301,.T.);
#750=EDGE_CURVE('',#585,#587,#302,.T.);
#751=EDGE_CURVE('',#588,#587,#303,.T.);
#752=EDGE_CURVE('',#586,#588,#304,.T.);
#753=EDGE_CURVE('',#586,#589,#305,.T.);
#754=EDGE_CURVE('',#590,#588,#306,.T.);
#755=EDGE_CURVE('',#589,#590,#307,.T.);
#756=EDGE_CURVE('',#589,#591,#308,.T.);
#757=EDGE_CURVE('',#592,#590,#309,.T.);
#758=EDGE_CURVE('',#591,#592,#310,.T.);
#759=EDGE_CURVE('',#591,#585,#311,.T.);
#760=EDGE_CURVE('',#587,#592,#312,.T.);
#761=ORIENTED_EDGE('',*,*,#593,.F.);
#762=ORIENTED_EDGE('',*,*,#594,.T.);
#763=ORIENTED_EDGE('',*,*,#595,.F.);
#764=ORIENTED_EDGE('',*,*,#594,.F.);
#765=ORIENTED_EDGE('',*,*,#596,.F.);
#766=ORIENTED_EDGE('',*,*,#597,.T.);
#767=ORIENTED_EDGE('',*,*,#598,.F.);
#768=ORIENTED_EDGE('',*,*,#597,.F.);
#769=ORIENTED_EDGE('',*,*,#599,.F.);
#770=ORIENTED_EDGE('',*,*,#600,.T.);
#771=ORIENTED_EDGE('',*,*,#601,.F.);
#772=ORIENTED_EDGE('',*,*,#600,.F.);
#773=ORIENTED_EDGE('',*,*,#602,.F.);
#774=ORIENTED_EDGE('',*,*,#603,.T.);
#775=ORIENTED_EDGE('',*,*,#604,.F.);
#776=ORIENTED_EDGE('',*,*,#603,.F.);
#777=ORIENTED_EDGE('',*,*,#605,.F.);
#778=ORIENTED_EDGE('',*,*,#606,.T.);
#779=ORIENTED_EDGE('',*,*,#607,.F.);
#780=ORIENTED_EDGE('',*,*,#608,.F.);
#781=ORIENTED_EDGE('',*,*,#609,.F.);
#782=ORIENTED_EDGE('',*,*,#608,.T.);
#783=ORIENTED_EDGE('',*,*,#610,.F.);
#784=ORIENTED_EDGE('',*,*,#611,.F.);
#785=ORIENTED_EDGE('',*,*,#612,.F.);
#786=ORIENTED_EDGE('',*,*,#611,.T.);
#787=ORIENTED_EDGE('',*,*,#613,.F.);
#788=ORIENTED_EDGE('',*,*,#614,.F.);
#789=ORIENTED_EDGE('',*,*,#615,.F.);
#790=ORIENTED_EDGE('',*,*,#614,.T.);
#791=ORIENTED_EDGE('',*,*,#616,.F.);
#792=ORIENTED_EDGE('',*,*,#617,.F.);
#793=ORIENTED_EDGE('',*,*,#618,.F.);
#794=ORIENTED_EDGE('',*,*,#617,.T.);
#795=ORIENTED_EDGE('',*,*,#619,.F.);
#796=ORIENTED_EDGE('',*,*,#620,.F.);
#797=ORIENTED_EDGE('',*,*,#621,.T.);
#798=ORIENTED_EDGE('',*,*,#620,.T.);
#799=ORIENTED_EDGE('',*,*,#622,.F.);
#800=ORIENTED_EDGE('',*,*,#623,.F.);
#801=ORIENTED_EDGE('',*,*,#624,.F.);
#802=ORIENTED_EDGE('',*,*,#623,.T.);
#803=ORIENTED_EDGE('',*,*,#625,.F.);
#804=ORIENTED_EDGE('',*,*,#626,.F.);
#805=ORIENTED_EDGE('',*,*,#627,.T.);
#806=ORIENTED_EDGE('',*,*,#626,.T.);
#807=ORIENTED_EDGE('',*,*,#628,.F.);
#808=ORIENTED_EDGE('',*,*,#606,.F.);
#809=ORIENTED_EDGE('',*,*,#629,.F.);
#810=ORIENTED_EDGE('',*,*,#630,.T.);
#811=ORIENTED_EDGE('',*,*,#631,.F.);
#812=ORIENTED_EDGE('',*,*,#632,.F.);
#813=ORIENTED_EDGE('',*,*,#633,.F.);
#814=ORIENTED_EDGE('',*,*,#632,.T.);
#815=ORIENTED_EDGE('',*,*,#634,.F.);
#816=ORIENTED_EDGE('',*,*,#635,.F.);
#817=ORIENTED_EDGE('',*,*,#636,.F.);
#818=ORIENTED_EDGE('',*,*,#635,.T.);
#819=ORIENTED_EDGE('',*,*,#637,.F.);
#820=ORIENTED_EDGE('',*,*,#638,.F.);
#821=ORIENTED_EDGE('',*,*,#639,.F.);
#822=ORIENTED_EDGE('',*,*,#638,.T.);
#823=ORIENTED_EDGE('',*,*,#640,.F.);
#824=ORIENTED_EDGE('',*,*,#641,.F.);
#825=ORIENTED_EDGE('',*,*,#642,.F.);
#826=ORIENTED_EDGE('',*,*,#641,.T.);
#827=ORIENTED_EDGE('',*,*,#643,.F.);
#828=ORIENTED_EDGE('',*,*,#644,.F.);
#829=ORIENTED_EDGE('',*,*,#645,.T.);
#830=ORIENTED_EDGE('',*,*,#644,.T.);
#831=ORIENTED_EDGE('',*,*,#646,.F.);
#832=ORIENTED_EDGE('',*,*,#647,.F.);
#833=ORIENTED_EDGE('',*,*,#648,.F.);
#834=ORIENTED_EDGE('',*,*,#647,.T.);
#835=ORIENTED_EDGE('',*,*,#649,.F.);
#836=ORIENTED_EDGE('',*,*,#650,.F.);
#837=ORIENTED_EDGE('',*,*,#651,.T.);
#838=ORIENTED_EDGE('',*,*,#650,.T.);
#839=ORIENTED_EDGE('',*,*,#652,.F.);
#840=ORIENTED_EDGE('',*,*,#630,.F.);
#841=ORIENTED_EDGE('',*,*,#653,.F.);
#842=ORIENTED_EDGE('',*,*,#654,.T.);
#843=ORIENTED_EDGE('',*,*,#655,.F.);
#844=ORIENTED_EDGE('',*,*,#656,.F.);
#845=ORIENTED_EDGE('',*,*,#657,.F.);
#846=ORIENTED_EDGE('',*,*,#656,.T.);
#847=ORIENTED_EDGE('',*,*,#658,.F.);
#848=ORIENTED_EDGE('',*,*,#659,.F.);
#849=ORIENTED_EDGE('',*,*,#660,.F.);
#850=ORIENTED_EDGE('',*,*,#659,.T.);
#851=ORIENTED_EDGE('',*,*,#661,.F.);
#852=ORIENTED_EDGE('',*,*,#662,.F.);
#853=ORIENTED_EDGE('',*,*,#663,.F.);
#854=ORIENTED_EDGE('',*,*,#662,.T.);
#855=ORIENTED_EDGE('',*,*,#664,.F.);
#856=ORIENTED_EDGE('',*,*,#665,.F.);
#857=ORIENTED_EDGE('',*,*,#666,.F.);
#858=ORIENTED_EDGE('',*,*,#665,.T.);
#859=ORIENTED_EDGE('',*,*,#667,.F.);
#860=ORIENTED_EDGE('',*,*,#668,.F.);
#861=ORIENTED_EDGE('',*,*,#669,.T.);
#862=ORIENTED_EDGE('',*,*,#668,.T.);
#863=ORIENTED_EDGE('',*,*,#670,.F.);
#864=ORIENTED_EDGE('',*,*,#671,.F.);
#865=ORIENTED_EDGE('',*,*,#672,.F.);
#866=ORIENTED_EDGE('',*,*,#671,.T.);
#867=ORIENTED_EDGE('',*,*,#673,.F.);
#868=ORIENTED_EDGE('',*,*,#674,.F.);
#869=ORIENTED_EDGE('',*,*,#675,.T.);
#870=ORIENTED_EDGE('',*,*,#674,.T.);
#871=ORIENTED_EDGE('',*,*,#676,.F.);
#872=ORIENTED_EDGE('',*,*,#654,.F.);
#873=ORIENTED_EDGE('',*,*,#677,.F.);
#874=ORIENTED_EDGE('',*,*,#678,.T.);
#875=ORIENTED_EDGE('',*,*,#679,.F.);
#876=ORIENTED_EDGE('',*,*,#680,.F.);
#877=ORIENTED_EDGE('',*,*,#681,.F.);
#878=ORIENTED_EDGE('',*,*,#680,.T.);
#879=ORIENTED_EDGE('',*,*,#682,.F.);
#880=ORIENTED_EDGE('',*,*,#683,.F.);
#881=ORIENTED_EDGE('',*,*,#684,.F.);
#882=ORIENTED_EDGE('',*,*,#683,.T.);
#883=ORIENTED_EDGE('',*,*,#685,.F.);
#884=ORIENTED_EDGE('',*,*,#686,.F.);
#885=ORIENTED_EDGE('',*,*,#687,.F.);
#886=ORIENTED_EDGE('',*,*,#686,.T.);
#887=ORIENTED_EDGE('',*,*,#688,.F.);
#888=ORIENTED_EDGE('',*,*,#689,.F.);
#889=ORIENTED_EDGE('',*,*,#690,.F.);
#890=ORIENTED_EDGE('',*,*,#689,.T.);
#891=ORIENTED_EDGE('',*,*,#691,.F.);
#892=ORIENTED_EDGE('',*,*,#692,.F.);
#893=ORIENTED_EDGE('',*,*,#693,.T.);
#894=ORIENTED_EDGE('',*,*,#692,.T.);
#895=ORIENTED_EDGE('',*,*,#694,.F.);
#896=ORIENTED_EDGE('',*,*,#695,.F.);
#897=ORIENTED_EDGE('',*,*,#696,.F.);
#898=ORIENTED_EDGE('',*,*,#695,.T.);
#899=ORIENTED_EDGE('',*,*,#697,.F.);
#900=ORIENTED_EDGE('',*,*,#698,.F.);
#901=ORIENTED_EDGE('',*,*,#699,.T.);
#902=ORIENTED_EDGE('',*,*,#698,.T.);
#903=ORIENTED_EDGE('',*,*,#700,.F.);
#904=ORIENTED_EDGE('',*,*,#678,.F.);
#905=ORIENTED_EDGE('',*,*,#701,.F.);
#906=ORIENTED_EDGE('',*,*,#702,.T.);
#907=ORIENTED_EDGE('',*,*,#703,.F.);
#908=ORIENTED_EDGE('',*,*,#704,.F.);
#909=ORIENTED_EDGE('',*,*,#705,.F.);
#910=ORIENTED_EDGE('',*,*,#704,.T.);
#911=ORIENTED_EDGE('',*,*,#706,.F.);
#912=ORIENTED_EDGE('',*,*,#707,.F.);
#913=ORIENTED_EDGE('',*,*,#708,.F.);
#914=ORIENTED_EDGE('',*,*,#707,.T.);
#915=ORIENTED_EDGE('',*,*,#709,.F.);
#916=ORIENTED_EDGE('',*,*,#710,.F.);
#917=ORIENTED_EDGE('',*,*,#711,.F.);
#918=ORIENTED_EDGE('',*,*,#710,.T.);
#919=ORIENTED_EDGE('',*,*,#712,.F.);
#920=ORIENTED_EDGE('',*,*,#713,.F.);
#921=ORIENTED_EDGE('',*,*,#714,.F.);
#922=ORIENTED_EDGE('',*,*,#713,.T.);
#923=ORIENTED_EDGE('',*,*,#715,.F.);
#924=ORIENTED_EDGE('',*,*,#716,.F.);
#925=ORIENTED_EDGE('',*,*,#717,.T.);
#926=ORIENTED_EDGE('',*,*,#716,.T.);
#927=ORIENTED_EDGE('',*,*,#718,.F.);
#928=ORIENTED_EDGE('',*,*,#719,.F.);
#929=ORIENTED_EDGE('',*,*,#720,.F.);
#930=ORIENTED_EDGE('',*,*,#719,.T.);
#931=ORIENTED_EDGE('',*,*,#721,.F.);
#932=ORIENTED_EDGE('',*,*,#722,.F.);
#933=ORIENTED_EDGE('',*,*,#723,.T.);
#934=ORIENTED_EDGE('',*,*,#722,.T.);
#935=ORIENTED_EDGE('',*,*,#724,.F.);
#936=ORIENTED_EDGE('',*,*,#702,.F.);
#937=ORIENTED_EDGE('',*,*,#725,.F.);
#938=ORIENTED_EDGE('',*,*,#726,.T.);
#939=ORIENTED_EDGE('',*,*,#727,.F.);
#940=ORIENTED_EDGE('',*,*,#728,.F.);
#941=ORIENTED_EDGE('',*,*,#729,.F.);
#942=ORIENTED_EDGE('',*,*,#728,.T.);
#943=ORIENTED_EDGE('',*,*,#730,.F.);
#944=ORIENTED_EDGE('',*,*,#731,.F.);
#945=ORIENTED_EDGE('',*,*,#732,.F.);
#946=ORIENTED_EDGE('',*,*,#731,.T.);
#947=ORIENTED_EDGE('',*,*,#733,.F.);
#948=ORIENTED_EDGE('',*,*,#734,.F.);
#949=ORIENTED_EDGE('',*,*,#735,.F.);
#950=ORIENTED_EDGE('',*,*,#734,.T.);
#951=ORIENTED_EDGE('',*,*,#736,.F.);
#952=ORIENTED_EDGE('',*,*,#737,.F.);
#953=ORIENTED_EDGE('',*,*,#738,.F.);
#954=ORIENTED_EDGE('',*,*,#737,.T.);
#955=ORIENTED_EDGE('',*,*,#739,.F.);
#956=ORIENTED_EDGE('',*,*,#740,.F.);
#957=ORIENTED_EDGE('',*,*,#741,.T.);
#958=ORIENTED_EDGE('',*,*,#740,.T.);
#959=ORIENTED_EDGE('',*,*,#742,.F.);
#960=ORIENTED_EDGE('',*,*,#743,.F.);
#961=ORIENTED_EDGE('',*,*,#744,.F.);
#962=ORIENTED_EDGE('',*,*,#743,.T.);
#963=ORIENTED_EDGE('',*,*,#745,.F.);
#964=ORIENTED_EDGE('',*,*,#746,.F.);
#965=ORIENTED_EDGE('',*,*,#747,.T.);
#966=ORIENTED_EDGE('',*,*,#746,.T.);
#967=ORIENTED_EDGE('',*,*,#748,.F.);
#968=ORIENTED_EDGE('',*,*,#726,.F.);
#969=ORIENTED_EDGE('',*,*,#749,.F.);
#970=ORIENTED_EDGE('',*,*,#750,.T.);
#971=ORIENTED_EDGE('',*,*,#751,.F.);
#972=ORIENTED_EDGE('',*,*,#752,.F.);
#973=ORIENTED_EDGE('',*,*,#753,.F.);
#974=ORIENTED_EDGE('',*,*,#752,.T.);
#975=ORIENTED_EDGE('',*,*,#754,.F.);
#976=ORIENTED_EDGE('',*,*,#755,.F.);
#977=ORIENTED_EDGE('',*,*,#756,.F.);
#978=ORIENTED_EDGE('',*,*,#755,.T.);
#979=ORIENTED_EDGE('',*,*,#757,.F.);
#980=ORIENTED_EDGE('',*,*,#758,.F.);
#981=ORIENTED_EDGE('',*,*,#759,.F.);
#982=ORIENTED_EDGE('',*,*,#758,.T.);
#983=ORIENTED_EDGE('',*,*,#760,.F.);
#984=ORIENTED_EDGE('',*,*,#750,.F.);
#985=ORIENTED_EDGE('',*,*,#760,.T.);
#986=ORIENTED_EDGE('',*,*,#757,.T.);
#987=ORIENTED_EDGE('',*,*,#754,.T.);
#988=ORIENTED_EDGE('',*,*,#751,.T.);
#989=ORIENTED_EDGE('',*,*,#596,.T.);
#990=ORIENTED_EDGE('',*,*,#628,.T.);
#991=ORIENTED_EDGE('',*,*,#625,.T.);
#992=ORIENTED_EDGE('',*,*,#622,.T.);
#993=ORIENTED_EDGE('',*,*,#619,.T.);
#994=ORIENTED_EDGE('',*,*,#616,.T.);
#995=ORIENTED_EDGE('',*,*,#613,.T.);
#996=ORIENTED_EDGE('',*,*,#610,.T.);
#997=ORIENTED_EDGE('',*,*,#607,.T.);
#998=ORIENTED_EDGE('',*,*,#652,.T.);
#999=ORIENTED_EDGE('',*,*,#649,.T.);
#1000=ORIENTED_EDGE('',*,*,#646,.T.);
#1001=ORIENTED_EDGE('',*,*,#643,.T.);
#1002=ORIENTED_EDGE('',*,*,#640,.T.);
#1003=ORIENTED_EDGE('',*,*,#637,.T.);
#1004=ORIENTED_EDGE('',*,*,#634,.T.);
#1005=ORIENTED_EDGE('',*,*,#631,.T.);
#1006=ORIENTED_EDGE('',*,*,#676,.T.);
#1007=ORIENTED_EDGE('',*,*,#673,.T.);
#1008=ORIENTED_EDGE('',*,*,#670,.T.);
#1009=ORIENTED_EDGE('',*,*,#667,.T.);
#1010=ORIENTED_EDGE('',*,*,#664,.T.);
#1011=ORIENTED_EDGE('',*,*,#661,.T.);
#1012=ORIENTED_EDGE('',*,*,#658,.T.);
#1013=ORIENTED_EDGE('',*,*,#655,.T.);
#1014=ORIENTED_EDGE('',*,*,#700,.T.);
#1015=ORIENTED_EDGE('',*,*,#697,.T.);
#1016=ORIENTED_EDGE('',*,*,#694,.T.);
#1017=ORIENTED_EDGE('',*,*,#691,.T.);
#1018=ORIENTED_EDGE('',*,*,#688,.T.);
#1019=ORIENTED_EDGE('',*,*,#685,.T.);
#1020=ORIENTED_EDGE('',*,*,#682,.T.);
#1021=ORIENTED_EDGE('',*,*,#679,.T.);
#1022=ORIENTED_EDGE('',*,*,#724,.T.);
#1023=ORIENTED_EDGE('',*,*,#721,.T.);
#1024=ORIENTED_EDGE('',*,*,#718,.T.);
#1025=ORIENTED_EDGE('',*,*,#715,.T.);
#1026=ORIENTED_EDGE('',*,*,#712,.T.);
#1027=ORIENTED_EDGE('',*,*,#709,.T.);
#1028=ORIENTED_EDGE('',*,*,#706,.T.);
#1029=ORIENTED_EDGE('',*,*,#703,.T.);
#1030=ORIENTED_EDGE('',*,*,#748,.T.);
#1031=ORIENTED_EDGE('',*,*,#745,.T.);
#1032=ORIENTED_EDGE('',*,*,#742,.T.);
#1033=ORIENTED_EDGE('',*,*,#739,.T.);
#1034=ORIENTED_EDGE('',*,*,#736,.T.);
#1035=ORIENTED_EDGE('',*,*,#733,.T.);
#1036=ORIENTED_EDGE('',*,*,#730,.T.);
#1037=ORIENTED_EDGE('',*,*,#727,.T.);
#1038=ORIENTED_EDGE('',*,*,#602,.T.);
#1039=ORIENTED_EDGE('',*,*,#599,.T.);
#1040=ORIENTED_EDGE('',*,*,#593,.T.);
#1041=ORIENTED_EDGE('',*,*,#759,.T.);
#1042=ORIENTED_EDGE('',*,*,#749,.T.);
#1043=ORIENTED_EDGE('',*,*,#753,.T.);
#1044=ORIENTED_EDGE('',*,*,#756,.T.);
#1045=ORIENTED_EDGE('',*,*,#598,.T.);
#1046=ORIENTED_EDGE('',*,*,#627,.F.);
#1047=ORIENTED_EDGE('',*,*,#605,.T.);
#1048=ORIENTED_EDGE('',*,*,#609,.T.);
#1049=ORIENTED_EDGE('',*,*,#612,.T.);
#1050=ORIENTED_EDGE('',*,*,#615,.T.);
#1051=ORIENTED_EDGE('',*,*,#618,.T.);
#1052=ORIENTED_EDGE('',*,*,#621,.F.);
#1053=ORIENTED_EDGE('',*,*,#624,.T.);
#1054=ORIENTED_EDGE('',*,*,#651,.F.);
#1055=ORIENTED_EDGE('',*,*,#629,.T.);
#1056=ORIENTED_EDGE('',*,*,#633,.T.);
#1057=ORIENTED_EDGE('',*,*,#636,.T.);
#1058=ORIENTED_EDGE('',*,*,#639,.T.);
#1059=ORIENTED_EDGE('',*,*,#642,.T.);
#1060=ORIENTED_EDGE('',*,*,#645,.F.);
#1061=ORIENTED_EDGE('',*,*,#648,.T.);
#1062=ORIENTED_EDGE('',*,*,#675,.F.);
#1063=ORIENTED_EDGE('',*,*,#653,.T.);
#1064=ORIENTED_EDGE('',*,*,#657,.T.);
#1065=ORIENTED_EDGE('',*,*,#660,.T.);
#1066=ORIENTED_EDGE('',*,*,#663,.T.);
#1067=ORIENTED_EDGE('',*,*,#666,.T.);
#1068=ORIENTED_EDGE('',*,*,#669,.F.);
#1069=ORIENTED_EDGE('',*,*,#672,.T.);
#1070=ORIENTED_EDGE('',*,*,#699,.F.);
#1071=ORIENTED_EDGE('',*,*,#677,.T.);
#1072=ORIENTED_EDGE('',*,*,#681,.T.);
#1073=ORIENTED_EDGE('',*,*,#684,.T.);
#1074=ORIENTED_EDGE('',*,*,#687,.T.);
#1075=ORIENTED_EDGE('',*,*,#690,.T.);
#1076=ORIENTED_EDGE('',*,*,#693,.F.);
#1077=ORIENTED_EDGE('',*,*,#696,.T.);
#1078=ORIENTED_EDGE('',*,*,#723,.F.);
#1079=ORIENTED_EDGE('',*,*,#701,.T.);
#1080=ORIENTED_EDGE('',*,*,#705,.T.);
#1081=ORIENTED_EDGE('',*,*,#708,.T.);
#1082=ORIENTED_EDGE('',*,*,#711,.T.);
#1083=ORIENTED_EDGE('',*,*,#714,.T.);
#1084=ORIENTED_EDGE('',*,*,#717,.F.);
#1085=ORIENTED_EDGE('',*,*,#720,.T.);
#1086=ORIENTED_EDGE('',*,*,#747,.F.);
#1087=ORIENTED_EDGE('',*,*,#725,.T.);
#1088=ORIENTED_EDGE('',*,*,#729,.T.);
#1089=ORIENTED_EDGE('',*,*,#732,.T.);
#1090=ORIENTED_EDGE('',*,*,#735,.T.);
#1091=ORIENTED_EDGE('',*,*,#738,.T.);
#1092=ORIENTED_EDGE('',*,*,#741,.F.);
#1093=ORIENTED_EDGE('',*,*,#744,.T.);
#1094=ORIENTED_EDGE('',*,*,#604,.T.);
#1095=ORIENTED_EDGE('',*,*,#601,.T.);
#1096=ORIENTED_EDGE('',*,*,#595,.T.);
#1097=CYLINDRICAL_SURFACE('',#1197,1.7);
#1098=CYLINDRICAL_SURFACE('',#1200,1.7);
#1099=CYLINDRICAL_SURFACE('',#1203,1.7);
#1100=CYLINDRICAL_SURFACE('',#1206,1.7);
#1101=CYLINDRICAL_SURFACE('',#1209,0.499999999999998);
#1102=CYLINDRICAL_SURFACE('',#1213,0.499999999999998);
#1103=CYLINDRICAL_SURFACE('',#1217,0.500000000000003);
#1104=CYLINDRICAL_SURFACE('',#1221,0.499999999999998);
#1105=CYLINDRICAL_SURFACE('',#1225,0.499999999999998);
#1106=CYLINDRICAL_SURFACE('',#1229,0.499999999999998);
#1107=CYLINDRICAL_SURFACE('',#1233,0.500000000000003);
#1108=CYLINDRICAL_SURFACE('',#1237,0.500000000000003);
#1109=CYLINDRICAL_SURFACE('',#1241,0.499999999999998);
#1110=CYLINDRICAL_SURFACE('',#1245,0.5);
#1111=CYLINDRICAL_SURFACE('',#1249,0.500000000000003);
#1112=CYLINDRICAL_SURFACE('',#1253,0.499999999999998);
#1113=CYLINDRICAL_SURFACE('',#1257,0.5);
#1114=CYLINDRICAL_SURFACE('',#1261,0.499999999999998);
#1115=CYLINDRICAL_SURFACE('',#1265,0.499999999999998);
#1116=CYLINDRICAL_SURFACE('',#1269,0.499999999999998);
#1117=CYLINDRICAL_SURFACE('',#1273,0.5);
#1118=CYLINDRICAL_SURFACE('',#1277,0.499999999999998);
#1119=CYLINDRICAL_SURFACE('',#1281,0.499999999999998);
#1120=CYLINDRICAL_SURFACE('',#1285,0.500000000000003);
#1121=CYLINDRICAL_SURFACE('',#1289,0.5);
#1122=CYLINDRICAL_SURFACE('',#1293,0.5);
#1123=CYLINDRICAL_SURFACE('',#1297,0.499999999999998);
#1124=CYLINDRICAL_SURFACE('',#1301,0.499999999999998);
#1125=ADVANCED_FACE('',(#65),#1097,.F.);
#1126=ADVANCED_FACE('',(#66),#1098,.F.);
#1127=ADVANCED_FACE('',(#67),#1099,.F.);
#1128=ADVANCED_FACE('',(#68),#1100,.F.);
#1129=ADVANCED_FACE('',(#69),#1101,.F.);
#1130=ADVANCED_FACE('',(#70),#35,.T.);
#1131=ADVANCED_FACE('',(#71),#1102,.F.);
#1132=ADVANCED_FACE('',(#72),#36,.T.);
#1133=ADVANCED_FACE('',(#73),#1103,.F.);
#1134=ADVANCED_FACE('',(#74),#37,.T.);
#1135=ADVANCED_FACE('',(#75),#1104,.F.);
#1136=ADVANCED_FACE('',(#76),#38,.T.);
#1137=ADVANCED_FACE('',(#77),#1105,.F.);
#1138=ADVANCED_FACE('',(#78),#39,.T.);
#1139=ADVANCED_FACE('',(#79),#1106,.F.);
#1140=ADVANCED_FACE('',(#80),#40,.T.);
#1141=ADVANCED_FACE('',(#81),#1107,.F.);
#1142=ADVANCED_FACE('',(#82),#41,.T.);
#1143=ADVANCED_FACE('',(#83),#1108,.F.);
#1144=ADVANCED_FACE('',(#84),#42,.T.);
#1145=ADVANCED_FACE('',(#85),#1109,.F.);
#1146=ADVANCED_FACE('',(#86),#43,.T.);
#1147=ADVANCED_FACE('',(#87),#1110,.F.);
#1148=ADVANCED_FACE('',(#88),#44,.T.);
#1149=ADVANCED_FACE('',(#89),#1111,.F.);
#1150=ADVANCED_FACE('',(#90),#45,.T.);
#1151=ADVANCED_FACE('',(#91),#1112,.F.);
#1152=ADVANCED_FACE('',(#92),#46,.T.);
#1153=ADVANCED_FACE('',(#93),#1113,.F.);
#1154=ADVANCED_FACE('',(#94),#47,.T.);
#1155=ADVANCED_FACE('',(#95),#1114,.F.);
#1156=ADVANCED_FACE('',(#96),#48,.T.);
#1157=ADVANCED_FACE('',(#97),#1115,.F.);
#1158=ADVANCED_FACE('',(#98),#49,.T.);
#1159=ADVANCED_FACE('',(#99),#1116,.F.);
#1160=ADVANCED_FACE('',(#100),#50,.T.);
#1161=ADVANCED_FACE('',(#101),#1117,.F.);
#1162=ADVANCED_FACE('',(#102),#51,.T.);
#1163=ADVANCED_FACE('',(#103),#1118,.F.);
#1164=ADVANCED_FACE('',(#104),#52,.T.);
#1165=ADVANCED_FACE('',(#105),#1119,.F.);
#1166=ADVANCED_FACE('',(#106),#53,.T.);
#1167=ADVANCED_FACE('',(#107),#1120,.F.);
#1168=ADVANCED_FACE('',(#108),#54,.T.);
#1169=ADVANCED_FACE('',(#109),#1121,.F.);
#1170=ADVANCED_FACE('',(#110),#55,.T.);
#1171=ADVANCED_FACE('',(#111),#1122,.F.);
#1172=ADVANCED_FACE('',(#112),#56,.T.);
#1173=ADVANCED_FACE('',(#113),#1123,.F.);
#1174=ADVANCED_FACE('',(#114),#57,.T.);
#1175=ADVANCED_FACE('',(#115),#1124,.F.);
#1176=ADVANCED_FACE('',(#116),#58,.T.);
#1177=ADVANCED_FACE('',(#117),#59,.T.);
#1178=ADVANCED_FACE('',(#118),#60,.T.);
#1179=ADVANCED_FACE('',(#119),#61,.T.);
#1180=ADVANCED_FACE('',(#120),#62,.T.);
#1181=ADVANCED_FACE('',(#121,#15,#16,#17,#18,#19,#20,#21,#22,#23,#24),#63,
 .T.);
#1182=ADVANCED_FACE('',(#122,#25,#26,#27,#28,#29,#30,#31,#32,#33,#34),#64,
 .F.);
#1183=CLOSED_SHELL('',(#1125,#1126,#1127,#1128,#1129,#1130,#1131,#1132,
#1133,#1134,#1135,#1136,#1137,#1138,#1139,#1140,#1141,#1142,#1143,#1144,
#1145,#1146,#1147,#1148,#1149,#1150,#1151,#1152,#1153,#1154,#1155,#1156,
#1157,#1158,#1159,#1160,#1161,#1162,#1163,#1164,#1165,#1166,#1167,#1168,
#1169,#1170,#1171,#1172,#1173,#1174,#1175,#1176,#1177,#1178,#1179,#1180,
#1181,#1182));
#1184=DERIVED_UNIT_ELEMENT(#1186,1.);
#1185=DERIVED_UNIT_ELEMENT(#1997,-3.);
#1186=(
MASS_UNIT()
NAMED_UNIT(*)
SI_UNIT(.KILO.,.GRAM.)
);
#1187=DERIVED_UNIT((#1184,#1185));
#1188=MEASURE_REPRESENTATION_ITEM('density measure',
POSITIVE_RATIO_MEASURE(7850.),#1187);
#1189=PROPERTY_DEFINITION_REPRESENTATION(#1194,#1191);
#1190=PROPERTY_DEFINITION_REPRESENTATION(#1195,#1192);
#1191=REPRESENTATION('material name',(#1193),#1994);
#1192=REPRESENTATION('density',(#1188),#1994);
#1193=DESCRIPTIVE_REPRESENTATION_ITEM('Steel','Steel');
#1194=PROPERTY_DEFINITION('material property','material name',#2004);
#1195=PROPERTY_DEFINITION('material property','density of part',#2004);
#1196=AXIS2_PLACEMENT_3D('',#1653,#1311,#1312);
#1197=AXIS2_PLACEMENT_3D('',#1654,#1313,#1314);
#1198=AXIS2_PLACEMENT_3D('',#1656,#1315,#1316);
#1199=AXIS2_PLACEMENT_3D('',#1659,#1318,#1319);
#1200=AXIS2_PLACEMENT_3D('',#1660,#1320,#1321);
#1201=AXIS2_PLACEMENT_3D('',#1662,#1322,#1323);
#1202=AXIS2_PLACEMENT_3D('',#1665,#1325,#1326);
#1203=AXIS2_PLACEMENT_3D('',#1666,#1327,#1328);
#1204=AXIS2_PLACEMENT_3D('',#1668,#1329,#1330);
#1205=AXIS2_PLACEMENT_3D('',#1671,#1332,#1333);
#1206=AXIS2_PLACEMENT_3D('',#1672,#1334,#1335);
#1207=AXIS2_PLACEMENT_3D('',#1674,#1336,#1337);
#1208=AXIS2_PLACEMENT_3D('',#1677,#1339,#1340);
#1209=AXIS2_PLACEMENT_3D('',#1678,#1341,#1342);
#1210=AXIS2_PLACEMENT_3D('',#1681,#1343,#1344);
#1211=AXIS2_PLACEMENT_3D('',#1685,#1346,#1347);
#1212=AXIS2_PLACEMENT_3D('',#1687,#1349,#1350);
#1213=AXIS2_PLACEMENT_3D('',#1693,#1354,#1355);
#1214=AXIS2_PLACEMENT_3D('',#1695,#1356,#1357);
#1215=AXIS2_PLACEMENT_3D('',#1697,#1358,#1359);
#1216=AXIS2_PLACEMENT_3D('',#1699,#1361,#1362);
#1217=AXIS2_PLACEMENT_3D('',#1705,#1366,#1367);
#1218=AXIS2_PLACEMENT_3D('',#1707,#1368,#1369);
#1219=AXIS2_PLACEMENT_3D('',#1709,#1370,#1371);
#1220=AXIS2_PLACEMENT_3D('',#1711,#1373,#1374);
#1221=AXIS2_PLACEMENT_3D('',#1717,#1378,#1379);
#1222=AXIS2_PLACEMENT_3D('',#1719,#1380,#1381);
#1223=AXIS2_PLACEMENT_3D('',#1721,#1382,#1383);
#1224=AXIS2_PLACEMENT_3D('',#1723,#1385,#1386);
#1225=AXIS2_PLACEMENT_3D('',#1726,#1389,#1390);
#1226=AXIS2_PLACEMENT_3D('',#1729,#1391,#1392);
#1227=AXIS2_PLACEMENT_3D('',#1733,#1394,#1395);
#1228=AXIS2_PLACEMENT_3D('',#1735,#1397,#1398);
#1229=AXIS2_PLACEMENT_3D('',#1741,#1402,#1403);
#1230=AXIS2_PLACEMENT_3D('',#1743,#1404,#1405);
#1231=AXIS2_PLACEMENT_3D('',#1745,#1406,#1407);
#1232=AXIS2_PLACEMENT_3D('',#1747,#1409,#1410);
#1233=AXIS2_PLACEMENT_3D('',#1753,#1414,#1415);
#1234=AXIS2_PLACEMENT_3D('',#1755,#1416,#1417);
#1235=AXIS2_PLACEMENT_3D('',#1757,#1418,#1419);
#1236=AXIS2_PLACEMENT_3D('',#1759,#1421,#1422);
#1237=AXIS2_PLACEMENT_3D('',#1765,#1426,#1427);
#1238=AXIS2_PLACEMENT_3D('',#1767,#1428,#1429);
#1239=AXIS2_PLACEMENT_3D('',#1769,#1430,#1431);
#1240=AXIS2_PLACEMENT_3D('',#1771,#1433,#1434);
#1241=AXIS2_PLACEMENT_3D('',#1774,#1437,#1438);
#1242=AXIS2_PLACEMENT_3D('',#1777,#1439,#1440);
#1243=AXIS2_PLACEMENT_3D('',#1781,#1442,#1443);
#1244=AXIS2_PLACEMENT_3D('',#1783,#1445,#1446);
#1245=AXIS2_PLACEMENT_3D('',#1789,#1450,#1451);
#1246=AXIS2_PLACEMENT_3D('',#1791,#1452,#1453);
#1247=AXIS2_PLACEMENT_3D('',#1793,#1454,#1455);
#1248=AXIS2_PLACEMENT_3D('',#1795,#1457,#1458);
#1249=AXIS2_PLACEMENT_3D('',#1801,#1462,#1463);
#1250=AXIS2_PLACEMENT_3D('',#1803,#1464,#1465);
#1251=AXIS2_PLACEMENT_3D('',#1805,#1466,#1467);
#1252=AXIS2_PLACEMENT_3D('',#1807,#1469,#1470);
#1253=AXIS2_PLACEMENT_3D('',#1813,#1474,#1475);
#1254=AXIS2_PLACEMENT_3D('',#1815,#1476,#1477);
#1255=AXIS2_PLACEMENT_3D('',#1817,#1478,#1479);
#1256=AXIS2_PLACEMENT_3D('',#1819,#1481,#1482);
#1257=AXIS2_PLACEMENT_3D('',#1822,#1485,#1486);
#1258=AXIS2_PLACEMENT_3D('',#1825,#1487,#1488);
#1259=AXIS2_PLACEMENT_3D('',#1829,#1490,#1491);
#1260=AXIS2_PLACEMENT_3D('',#1831,#1493,#1494);
#1261=AXIS2_PLACEMENT_3D('',#1837,#1498,#1499);
#1262=AXIS2_PLACEMENT_3D('',#1839,#1500,#1501);
#1263=AXIS2_PLACEMENT_3D('',#1841,#1502,#1503);
#1264=AXIS2_PLACEMENT_3D('',#1843,#1505,#1506);
#1265=AXIS2_PLACEMENT_3D('',#1849,#1510,#1511);
#1266=AXIS2_PLACEMENT_3D('',#1851,#1512,#1513);
#1267=AXIS2_PLACEMENT_3D('',#1853,#1514,#1515);
#1268=AXIS2_PLACEMENT_3D('',#1855,#1517,#1518);
#1269=AXIS2_PLACEMENT_3D('',#1861,#1522,#1523);
#1270=AXIS2_PLACEMENT_3D('',#1863,#1524,#1525);
#1271=AXIS2_PLACEMENT_3D('',#1865,#1526,#1527);
#1272=AXIS2_PLACEMENT_3D('',#1867,#1529,#1530);
#1273=AXIS2_PLACEMENT_3D('',#1870,#1533,#1534);
#1274=AXIS2_PLACEMENT_3D('',#1873,#1535,#1536);
#1275=AXIS2_PLACEMENT_3D('',#1877,#1538,#1539);
#1276=AXIS2_PLACEMENT_3D('',#1879,#1541,#1542);
#1277=AXIS2_PLACEMENT_3D('',#1885,#1546,#1547);
#1278=AXIS2_PLACEMENT_3D('',#1887,#1548,#1549);
#1279=AXIS2_PLACEMENT_3D('',#1889,#1550,#1551);
#1280=AXIS2_PLACEMENT_3D('',#1891,#1553,#1554);
#1281=AXIS2_PLACEMENT_3D('',#1897,#1558,#1559);
#1282=AXIS2_PLACEMENT_3D('',#1899,#1560,#1561);
#1283=AXIS2_PLACEMENT_3D('',#1901,#1562,#1563);
#1284=AXIS2_PLACEMENT_3D('',#1903,#1565,#1566);
#1285=AXIS2_PLACEMENT_3D('',#1909,#1570,#1571);
#1286=AXIS2_PLACEMENT_3D('',#1911,#1572,#1573);
#1287=AXIS2_PLACEMENT_3D('',#1913,#1574,#1575);
#1288=AXIS2_PLACEMENT_3D('',#1915,#1577,#1578);
#1289=AXIS2_PLACEMENT_3D('',#1918,#1581,#1582);
#1290=AXIS2_PLACEMENT_3D('',#1921,#1583,#1584);
#1291=AXIS2_PLACEMENT_3D('',#1925,#1586,#1587);
#1292=AXIS2_PLACEMENT_3D('',#1927,#1589,#1590);
#1293=AXIS2_PLACEMENT_3D('',#1933,#1594,#1595);
#1294=AXIS2_PLACEMENT_3D('',#1935,#1596,#1597);
#1295=AXIS2_PLACEMENT_3D('',#1937,#1598,#1599);
#1296=AXIS2_PLACEMENT_3D('',#1939,#1601,#1602);
#1297=AXIS2_PLACEMENT_3D('',#1945,#1606,#1607);
#1298=AXIS2_PLACEMENT_3D('',#1947,#1608,#1609);
#1299=AXIS2_PLACEMENT_3D('',#1949,#1610,#1611);
#1300=AXIS2_PLACEMENT_3D('',#1951,#1613,#1614);
#1301=AXIS2_PLACEMENT_3D('',#1957,#1618,#1619);
#1302=AXIS2_PLACEMENT_3D('',#1959,#1620,#1621);
#1303=AXIS2_PLACEMENT_3D('',#1961,#1622,#1623);
#1304=AXIS2_PLACEMENT_3D('',#1963,#1625,#1626);
#1305=AXIS2_PLACEMENT_3D('',#1966,#1629,#1630);
#1306=AXIS2_PLACEMENT_3D('',#1975,#1635,#1636);
#1307=AXIS2_PLACEMENT_3D('',#1981,#1640,#1641);
#1308=AXIS2_PLACEMENT_3D('',#1987,#1645,#1646);
#1309=AXIS2_PLACEMENT_3D('',#1990,#1649,#1650);
#1310=AXIS2_PLACEMENT_3D('',#1991,#1651,#1652);
#1311=DIRECTION('axis',(0.,0.,1.));
#1312=DIRECTION('refdir',(1.,0.,0.));
#1313=DIRECTION('center_axis',(0.,0.,-1.));
#1314=DIRECTION('ref_axis',(1.,0.,0.));
#1315=DIRECTION('center_axis',(0.,0.,-1.));
#1316=DIRECTION('ref_axis',(1.,0.,0.));
#1317=DIRECTION('',(0.,0.,-1.));
#1318=DIRECTION('center_axis',(0.,0.,1.));
#1319=DIRECTION('ref_axis',(1.,0.,0.));
#1320=DIRECTION('center_axis',(0.,0.,-1.));
#1321=DIRECTION('ref_axis',(1.,0.,0.));
#1322=DIRECTION('center_axis',(0.,0.,-1.));
#1323=DIRECTION('ref_axis',(1.,0.,0.));
#1324=DIRECTION('',(0.,0.,-1.));
#1325=DIRECTION('center_axis',(0.,0.,1.));
#1326=DIRECTION('ref_axis',(1.,0.,0.));
#1327=DIRECTION('center_axis',(0.,0.,-1.));
#1328=DIRECTION('ref_axis',(1.,0.,0.));
#1329=DIRECTION('center_axis',(0.,0.,-1.));
#1330=DIRECTION('ref_axis',(1.,0.,0.));
#1331=DIRECTION('',(0.,0.,-1.));
#1332=DIRECTION('center_axis',(0.,0.,1.));
#1333=DIRECTION('ref_axis',(1.,0.,0.));
#1334=DIRECTION('center_axis',(0.,0.,-1.));
#1335=DIRECTION('ref_axis',(1.,0.,0.));
#1336=DIRECTION('center_axis',(0.,0.,-1.));
#1337=DIRECTION('ref_axis',(1.,0.,0.));
#1338=DIRECTION('',(0.,0.,-1.));
#1339=DIRECTION('center_axis',(0.,0.,1.));
#1340=DIRECTION('ref_axis',(1.,0.,0.));
#1341=DIRECTION('center_axis',(0.,0.,1.));
#1342=DIRECTION('ref_axis',(0.,1.,0.));
#1343=DIRECTION('center_axis',(0.,0.,1.));
#1344=DIRECTION('ref_axis',(0.,1.,0.));
#1345=DIRECTION('',(0.,0.,1.));
#1346=DIRECTION('center_axis',(0.,0.,-1.));
#1347=DIRECTION('ref_axis',(0.,1.,0.));
#1348=DIRECTION('',(0.,0.,1.));
#1349=DIRECTION('center_axis',(1.,0.,0.));
#1350=DIRECTION('ref_axis',(0.,1.,0.));
#1351=DIRECTION('',(0.,-1.,0.));
#1352=DIRECTION('',(0.,1.,0.));
#1353=DIRECTION('',(0.,0.,1.));
#1354=DIRECTION('center_axis',(0.,0.,1.));
#1355=DIRECTION('ref_axis',(-1.,0.,0.));
#1356=DIRECTION('center_axis',(0.,0.,1.));
#1357=DIRECTION('ref_axis',(-1.,0.,0.));
#1358=DIRECTION('center_axis',(0.,0.,-1.));
#1359=DIRECTION('ref_axis',(-1.,0.,0.));
#1360=DIRECTION('',(0.,0.,1.));
#1361=DIRECTION('center_axis',(0.,1.,0.));
#1362=DIRECTION('ref_axis',(-1.,0.,0.));
#1363=DIRECTION('',(1.,0.,0.));
#1364=DIRECTION('',(-1.,0.,0.));
#1365=DIRECTION('',(0.,0.,1.));
#1366=DIRECTION('center_axis',(0.,0.,1.));
#1367=DIRECTION('ref_axis',(0.,-1.,0.));
#1368=DIRECTION('center_axis',(0.,0.,1.));
#1369=DIRECTION('ref_axis',(0.,-1.,0.));
#1370=DIRECTION('center_axis',(0.,0.,-1.));
#1371=DIRECTION('ref_axis',(0.,-1.,0.));
#1372=DIRECTION('',(0.,0.,1.));
#1373=DIRECTION('center_axis',(-1.,0.,0.));
#1374=DIRECTION('ref_axis',(0.,-1.,0.));
#1375=DIRECTION('',(0.,-1.,0.));
#1376=DIRECTION('',(0.,-1.,0.));
#1377=DIRECTION('',(0.,0.,1.));
#1378=DIRECTION('center_axis',(0.,0.,1.));
#1379=DIRECTION('ref_axis',(1.,0.,0.));
#1380=DIRECTION('center_axis',(0.,0.,1.));
#1381=DIRECTION('ref_axis',(1.,0.,0.));
#1382=DIRECTION('center_axis',(0.,0.,-1.));
#1383=DIRECTION('ref_axis',(1.,0.,0.));
#1384=DIRECTION('',(0.,0.,1.));
#1385=DIRECTION('center_axis',(0.,-1.,0.));
#1386=DIRECTION('ref_axis',(1.,0.,0.));
#1387=DIRECTION('',(1.,0.,0.));
#1388=DIRECTION('',(1.,0.,0.));
#1389=DIRECTION('center_axis',(0.,0.,1.));
#1390=DIRECTION('ref_axis',(0.,1.,0.));
#1391=DIRECTION('center_axis',(0.,0.,1.));
#1392=DIRECTION('ref_axis',(0.,1.,0.));
#1393=DIRECTION('',(0.,0.,1.));
#1394=DIRECTION('center_axis',(0.,0.,-1.));
#1395=DIRECTION('ref_axis',(0.,1.,0.));
#1396=DIRECTION('',(0.,0.,1.));
#1397=DIRECTION('center_axis',(1.,0.,0.));
#1398=DIRECTION('ref_axis',(0.,1.,0.));
#1399=DIRECTION('',(0.,-1.,0.));
#1400=DIRECTION('',(0.,1.,0.));
#1401=DIRECTION('',(0.,0.,1.));
#1402=DIRECTION('center_axis',(0.,0.,1.));
#1403=DIRECTION('ref_axis',(-1.,0.,0.));
#1404=DIRECTION('center_axis',(0.,0.,1.));
#1405=DIRECTION('ref_axis',(-1.,0.,0.));
#1406=DIRECTION('center_axis',(0.,0.,-1.));
#1407=DIRECTION('ref_axis',(-1.,0.,0.));
#1408=DIRECTION('',(0.,0.,1.));
#1409=DIRECTION('center_axis',(0.,1.,0.));
#1410=DIRECTION('ref_axis',(-1.,0.,0.));
#1411=DIRECTION('',(1.,0.,0.));
#1412=DIRECTION('',(-1.,0.,0.));
#1413=DIRECTION('',(0.,0.,1.));
#1414=DIRECTION('center_axis',(0.,0.,1.));
#1415=DIRECTION('ref_axis',(0.,-1.,0.));
#1416=DIRECTION('center_axis',(0.,0.,1.));
#1417=DIRECTION('ref_axis',(0.,-1.,0.));
#1418=DIRECTION('center_axis',(0.,0.,-1.));
#1419=DIRECTION('ref_axis',(0.,-1.,0.));
#1420=DIRECTION('',(0.,0.,1.));
#1421=DIRECTION('center_axis',(-1.,0.,0.));
#1422=DIRECTION('ref_axis',(0.,-1.,0.));
#1423=DIRECTION('',(0.,-1.,0.));
#1424=DIRECTION('',(0.,-1.,0.));
#1425=DIRECTION('',(0.,0.,1.));
#1426=DIRECTION('center_axis',(0.,0.,1.));
#1427=DIRECTION('ref_axis',(1.,0.,0.));
#1428=DIRECTION('center_axis',(0.,0.,1.));
#1429=DIRECTION('ref_axis',(1.,0.,0.));
#1430=DIRECTION('center_axis',(0.,0.,-1.));
#1431=DIRECTION('ref_axis',(1.,0.,0.));
#1432=DIRECTION('',(0.,0.,1.));
#1433=DIRECTION('center_axis',(0.,-1.,0.));
#1434=DIRECTION('ref_axis',(1.,0.,0.));
#1435=DIRECTION('',(1.,0.,0.));
#1436=DIRECTION('',(1.,0.,0.));
#1437=DIRECTION('center_axis',(0.,0.,1.));
#1438=DIRECTION('ref_axis',(0.,1.,0.));
#1439=DIRECTION('center_axis',(0.,0.,1.));
#1440=DIRECTION('ref_axis',(0.,1.,0.));
#1441=DIRECTION('',(0.,0.,1.));
#1442=DIRECTION('center_axis',(0.,0.,-1.));
#1443=DIRECTION('ref_axis',(0.,1.,0.));
#1444=DIRECTION('',(0.,0.,1.));
#1445=DIRECTION('center_axis',(1.,0.,0.));
#1446=DIRECTION('ref_axis',(0.,1.,0.));
#1447=DIRECTION('',(0.,-1.,0.));
#1448=DIRECTION('',(0.,1.,0.));
#1449=DIRECTION('',(0.,0.,1.));
#1450=DIRECTION('center_axis',(0.,0.,1.));
#1451=DIRECTION('ref_axis',(-1.,0.,0.));
#1452=DIRECTION('center_axis',(0.,0.,1.));
#1453=DIRECTION('ref_axis',(-1.,0.,0.));
#1454=DIRECTION('center_axis',(0.,0.,-1.));
#1455=DIRECTION('ref_axis',(-1.,0.,0.));
#1456=DIRECTION('',(0.,0.,1.));
#1457=DIRECTION('center_axis',(0.,1.,0.));
#1458=DIRECTION('ref_axis',(-1.,0.,0.));
#1459=DIRECTION('',(1.,0.,0.));
#1460=DIRECTION('',(-1.,0.,0.));
#1461=DIRECTION('',(0.,0.,1.));
#1462=DIRECTION('center_axis',(0.,0.,1.));
#1463=DIRECTION('ref_axis',(0.,-1.,0.));
#1464=DIRECTION('center_axis',(0.,0.,1.));
#1465=DIRECTION('ref_axis',(0.,-1.,0.));
#1466=DIRECTION('center_axis',(0.,0.,-1.));
#1467=DIRECTION('ref_axis',(0.,-1.,0.));
#1468=DIRECTION('',(0.,0.,1.));
#1469=DIRECTION('center_axis',(-1.,0.,0.));
#1470=DIRECTION('ref_axis',(0.,-1.,0.));
#1471=DIRECTION('',(0.,-1.,0.));
#1472=DIRECTION('',(0.,-1.,0.));
#1473=DIRECTION('',(0.,0.,1.));
#1474=DIRECTION('center_axis',(0.,0.,1.));
#1475=DIRECTION('ref_axis',(1.,0.,0.));
#1476=DIRECTION('center_axis',(0.,0.,1.));
#1477=DIRECTION('ref_axis',(1.,0.,0.));
#1478=DIRECTION('center_axis',(0.,0.,-1.));
#1479=DIRECTION('ref_axis',(1.,0.,0.));
#1480=DIRECTION('',(0.,0.,1.));
#1481=DIRECTION('center_axis',(0.,-1.,0.));
#1482=DIRECTION('ref_axis',(1.,0.,0.));
#1483=DIRECTION('',(1.,0.,0.));
#1484=DIRECTION('',(1.,0.,0.));
#1485=DIRECTION('center_axis',(0.,0.,1.));
#1486=DIRECTION('ref_axis',(0.,1.,0.));
#1487=DIRECTION('center_axis',(0.,0.,1.));
#1488=DIRECTION('ref_axis',(0.,1.,0.));
#1489=DIRECTION('',(0.,0.,1.));
#1490=DIRECTION('center_axis',(0.,0.,-1.));
#1491=DIRECTION('ref_axis',(0.,1.,0.));
#1492=DIRECTION('',(0.,0.,1.));
#1493=DIRECTION('center_axis',(1.,0.,0.));
#1494=DIRECTION('ref_axis',(0.,1.,0.));
#1495=DIRECTION('',(0.,-1.,0.));
#1496=DIRECTION('',(0.,1.,0.));
#1497=DIRECTION('',(0.,0.,1.));
#1498=DIRECTION('center_axis',(0.,0.,1.));
#1499=DIRECTION('ref_axis',(-1.,0.,0.));
#1500=DIRECTION('center_axis',(0.,0.,1.));
#1501=DIRECTION('ref_axis',(-1.,0.,0.));
#1502=DIRECTION('center_axis',(0.,0.,-1.));
#1503=DIRECTION('ref_axis',(-1.,0.,0.));
#1504=DIRECTION('',(0.,0.,1.));
#1505=DIRECTION('center_axis',(0.,1.,0.));
#1506=DIRECTION('ref_axis',(-1.,0.,0.));
#1507=DIRECTION('',(1.,0.,0.));
#1508=DIRECTION('',(-1.,0.,0.));
#1509=DIRECTION('',(0.,0.,1.));
#1510=DIRECTION('center_axis',(0.,0.,1.));
#1511=DIRECTION('ref_axis',(0.,-1.,0.));
#1512=DIRECTION('center_axis',(0.,0.,1.));
#1513=DIRECTION('ref_axis',(0.,-1.,0.));
#1514=DIRECTION('center_axis',(0.,0.,-1.));
#1515=DIRECTION('ref_axis',(0.,-1.,0.));
#1516=DIRECTION('',(0.,0.,1.));
#1517=DIRECTION('center_axis',(-1.,0.,0.));
#1518=DIRECTION('ref_axis',(0.,-1.,0.));
#1519=DIRECTION('',(0.,-1.,0.));
#1520=DIRECTION('',(0.,-1.,0.));
#1521=DIRECTION('',(0.,0.,1.));
#1522=DIRECTION('center_axis',(0.,0.,1.));
#1523=DIRECTION('ref_axis',(1.,0.,0.));
#1524=DIRECTION('center_axis',(0.,0.,1.));
#1525=DIRECTION('ref_axis',(1.,0.,0.));
#1526=DIRECTION('center_axis',(0.,0.,-1.));
#1527=DIRECTION('ref_axis',(1.,0.,0.));
#1528=DIRECTION('',(0.,0.,1.));
#1529=DIRECTION('center_axis',(0.,-1.,0.));
#1530=DIRECTION('ref_axis',(1.,0.,0.));
#1531=DIRECTION('',(1.,0.,0.));
#1532=DIRECTION('',(1.,0.,0.));
#1533=DIRECTION('center_axis',(0.,0.,1.));
#1534=DIRECTION('ref_axis',(0.,1.,0.));
#1535=DIRECTION('center_axis',(0.,0.,1.));
#1536=DIRECTION('ref_axis',(0.,1.,0.));
#1537=DIRECTION('',(0.,0.,1.));
#1538=DIRECTION('center_axis',(0.,0.,-1.));
#1539=DIRECTION('ref_axis',(0.,1.,0.));
#1540=DIRECTION('',(0.,0.,1.));
#1541=DIRECTION('center_axis',(1.,0.,0.));
#1542=DIRECTION('ref_axis',(0.,1.,0.));
#1543=DIRECTION('',(0.,-1.,0.));
#1544=DIRECTION('',(0.,1.,0.));
#1545=DIRECTION('',(0.,0.,1.));
#1546=DIRECTION('center_axis',(0.,0.,1.));
#1547=DIRECTION('ref_axis',(-1.,0.,0.));
#1548=DIRECTION('center_axis',(0.,0.,1.));
#1549=DIRECTION('ref_axis',(-1.,0.,0.));
#1550=DIRECTION('center_axis',(0.,0.,-1.));
#1551=DIRECTION('ref_axis',(-1.,0.,0.));
#1552=DIRECTION('',(0.,0.,1.));
#1553=DIRECTION('center_axis',(0.,1.,0.));
#1554=DIRECTION('ref_axis',(-1.,0.,0.));
#1555=DIRECTION('',(1.,0.,0.));
#1556=DIRECTION('',(-1.,0.,0.));
#1557=DIRECTION('',(0.,0.,1.));
#1558=DIRECTION('center_axis',(0.,0.,1.));
#1559=DIRECTION('ref_axis',(0.,-1.,0.));
#1560=DIRECTION('center_axis',(0.,0.,1.));
#1561=DIRECTION('ref_axis',(0.,-1.,0.));
#1562=DIRECTION('center_axis',(0.,0.,-1.));
#1563=DIRECTION('ref_axis',(0.,-1.,0.));
#1564=DIRECTION('',(0.,0.,1.));
#1565=DIRECTION('center_axis',(-1.,0.,0.));
#1566=DIRECTION('ref_axis',(0.,-1.,0.));
#1567=DIRECTION('',(0.,-1.,0.));
#1568=DIRECTION('',(0.,-1.,0.));
#1569=DIRECTION('',(0.,0.,1.));
#1570=DIRECTION('center_axis',(0.,0.,1.));
#1571=DIRECTION('ref_axis',(1.,0.,0.));
#1572=DIRECTION('center_axis',(0.,0.,1.));
#1573=DIRECTION('ref_axis',(1.,0.,0.));
#1574=DIRECTION('center_axis',(0.,0.,-1.));
#1575=DIRECTION('ref_axis',(1.,0.,0.));
#1576=DIRECTION('',(0.,0.,1.));
#1577=DIRECTION('center_axis',(0.,-1.,0.));
#1578=DIRECTION('ref_axis',(1.,0.,0.));
#1579=DIRECTION('',(1.,0.,0.));
#1580=DIRECTION('',(1.,0.,0.));
#1581=DIRECTION('center_axis',(0.,0.,1.));
#1582=DIRECTION('ref_axis',(0.,1.,0.));
#1583=DIRECTION('center_axis',(0.,0.,1.));
#1584=DIRECTION('ref_axis',(0.,1.,0.));
#1585=DIRECTION('',(0.,0.,1.));
#1586=DIRECTION('center_axis',(0.,0.,-1.));
#1587=DIRECTION('ref_axis',(0.,1.,0.));
#1588=DIRECTION('',(0.,0.,1.));
#1589=DIRECTION('center_axis',(1.,0.,0.));
#1590=DIRECTION('ref_axis',(0.,1.,0.));
#1591=DIRECTION('',(0.,-1.,0.));
#1592=DIRECTION('',(0.,1.,0.));
#1593=DIRECTION('',(0.,0.,1.));
#1594=DIRECTION('center_axis',(0.,0.,1.));
#1595=DIRECTION('ref_axis',(-1.,0.,0.));
#1596=DIRECTION('center_axis',(0.,0.,1.));
#1597=DIRECTION('ref_axis',(-1.,0.,0.));
#1598=DIRECTION('center_axis',(0.,0.,-1.));
#1599=DIRECTION('ref_axis',(-1.,0.,0.));
#1600=DIRECTION('',(0.,0.,1.));
#1601=DIRECTION('center_axis',(0.,1.,0.));
#1602=DIRECTION('ref_axis',(-1.,0.,0.));
#1603=DIRECTION('',(1.,0.,0.));
#1604=DIRECTION('',(-1.,0.,0.));
#1605=DIRECTION('',(0.,0.,1.));
#1606=DIRECTION('center_axis',(0.,0.,1.));
#1607=DIRECTION('ref_axis',(0.,-1.,0.));
#1608=DIRECTION('center_axis',(0.,0.,1.));
#1609=DIRECTION('ref_axis',(0.,-1.,0.));
#1610=DIRECTION('center_axis',(0.,0.,-1.));
#1611=DIRECTION('ref_axis',(0.,-1.,0.));
#1612=DIRECTION('',(0.,0.,1.));
#1613=DIRECTION('center_axis',(-1.,0.,0.));
#1614=DIRECTION('ref_axis',(0.,-1.,0.));
#1615=DIRECTION('',(0.,-1.,0.));
#1616=DIRECTION('',(0.,-1.,0.));
#1617=DIRECTION('',(0.,0.,1.));
#1618=DIRECTION('center_axis',(0.,0.,1.));
#1619=DIRECTION('ref_axis',(1.,0.,0.));
#1620=DIRECTION('center_axis',(0.,0.,1.));
#1621=DIRECTION('ref_axis',(1.,0.,0.));
#1622=DIRECTION('center_axis',(0.,0.,-1.));
#1623=DIRECTION('ref_axis',(1.,0.,0.));
#1624=DIRECTION('',(0.,0.,1.));
#1625=DIRECTION('center_axis',(0.,-1.,0.));
#1626=DIRECTION('ref_axis',(1.,0.,0.));
#1627=DIRECTION('',(1.,0.,0.));
#1628=DIRECTION('',(1.,0.,0.));
#1629=DIRECTION('center_axis',(-1.,0.,0.));
#1630=DIRECTION('ref_axis',(0.,-1.,0.));
#1631=DIRECTION('',(0.,1.,0.));
#1632=DIRECTION('',(0.,0.,1.));
#1633=DIRECTION('',(0.,-1.,0.));
#1634=DIRECTION('',(0.,0.,1.));
#1635=DIRECTION('center_axis',(0.,1.,0.));
#1636=DIRECTION('ref_axis',(-1.,0.,0.));
#1637=DIRECTION('',(1.,0.,0.));
#1638=DIRECTION('',(-1.,0.,0.));
#1639=DIRECTION('',(0.,0.,1.));
#1640=DIRECTION('center_axis',(1.,0.,0.));
#1641=DIRECTION('ref_axis',(0.,1.,0.));
#1642=DIRECTION('',(0.,-1.,0.));
#1643=DIRECTION('',(0.,1.,0.));
#1644=DIRECTION('',(0.,0.,1.));
#1645=DIRECTION('center_axis',(0.,-1.,0.));
#1646=DIRECTION('ref_axis',(1.,0.,0.));
#1647=DIRECTION('',(-1.,0.,0.));
#1648=DIRECTION('',(1.,0.,0.));
#1649=DIRECTION('center_axis',(0.,0.,1.));
#1650=DIRECTION('ref_axis',(1.,0.,0.));
#1651=DIRECTION('center_axis',(0.,0.,1.));
#1652=DIRECTION('ref_axis',(1.,0.,0.));
#1653=CARTESIAN_POINT('',(0.,0.,0.));
#1654=CARTESIAN_POINT('Origin',(63.8999999254942,-61.3999999254942,-47.));
#1655=CARTESIAN_POINT('',(62.1999999254942,-61.3999999254942,3.));
#1656=CARTESIAN_POINT('Origin',(63.8999999254942,-61.3999999254942,3.));
#1657=CARTESIAN_POINT('',(62.1999999254942,-61.3999999254942,0.));
#1658=CARTESIAN_POINT('',(62.1999999254942,-61.3999999254942,-47.));
#1659=CARTESIAN_POINT('Origin',(63.8999999254942,-61.3999999254942,0.));
#1660=CARTESIAN_POINT('Origin',(-5.00000007450581,-61.3999999254942,-47.));
#1661=CARTESIAN_POINT('',(-6.70000007450581,-61.3999999254942,3.));
#1662=CARTESIAN_POINT('Origin',(-5.00000007450581,-61.3999999254942,3.));
#1663=CARTESIAN_POINT('',(-6.70000007450581,-61.3999999254942,0.));
#1664=CARTESIAN_POINT('',(-6.70000007450581,-61.3999999254942,-47.));
#1665=CARTESIAN_POINT('Origin',(-5.00000007450581,-61.3999999254942,0.));
#1666=CARTESIAN_POINT('Origin',(63.8999999254942,5.00000007450581,-47.));
#1667=CARTESIAN_POINT('',(62.1999999254942,5.00000007450581,3.));
#1668=CARTESIAN_POINT('Origin',(63.8999999254942,5.00000007450581,3.));
#1669=CARTESIAN_POINT('',(62.1999999254942,5.00000007450581,0.));
#1670=CARTESIAN_POINT('',(62.1999999254942,5.00000007450581,-47.));
#1671=CARTESIAN_POINT('Origin',(63.8999999254942,5.00000007450581,0.));
#1672=CARTESIAN_POINT('Origin',(-5.00000007450581,5.00000007450581,-47.));
#1673=CARTESIAN_POINT('',(-6.70000007450581,5.00000007450581,3.));
#1674=CARTESIAN_POINT('Origin',(-5.00000007450581,5.00000007450581,3.));
#1675=CARTESIAN_POINT('',(-6.70000007450581,5.00000007450581,0.));
#1676=CARTESIAN_POINT('',(-6.70000007450581,5.00000007450581,-47.));
#1677=CARTESIAN_POINT('Origin',(-5.00000007450581,5.00000007450581,0.));
#1678=CARTESIAN_POINT('Origin',(41.125,-22.075,0.));
#1679=CARTESIAN_POINT('',(41.125,-21.575,0.));
#1680=CARTESIAN_POINT('',(40.625,-22.075,0.));
#1681=CARTESIAN_POINT('Origin',(41.125,-22.075,0.));
#1682=CARTESIAN_POINT('',(41.125,-21.575,3.));
#1683=CARTESIAN_POINT('',(41.125,-21.575,0.));
#1684=CARTESIAN_POINT('',(40.625,-22.075,3.));
#1685=CARTESIAN_POINT('Origin',(41.125,-22.075,3.));
#1686=CARTESIAN_POINT('',(40.625,-22.075,0.));
#1687=CARTESIAN_POINT('Origin',(40.625,-35.075,0.));
#1688=CARTESIAN_POINT('',(40.625,-35.075,0.));
#1689=CARTESIAN_POINT('',(40.625,-22.075,0.));
#1690=CARTESIAN_POINT('',(40.625,-35.075,3.));
#1691=CARTESIAN_POINT('',(40.625,-22.075,3.));
#1692=CARTESIAN_POINT('',(40.625,-35.075,0.));
#1693=CARTESIAN_POINT('Origin',(41.125,-35.075,0.));
#1694=CARTESIAN_POINT('',(41.125,-35.575,0.));
#1695=CARTESIAN_POINT('Origin',(41.125,-35.075,0.));
#1696=CARTESIAN_POINT('',(41.125,-35.575,3.));
#1697=CARTESIAN_POINT('Origin',(41.125,-35.075,3.));
#1698=CARTESIAN_POINT('',(41.125,-35.575,0.));
#1699=CARTESIAN_POINT('Origin',(54.125,-35.575,0.));
#1700=CARTESIAN_POINT('',(54.125,-35.575,0.));
#1701=CARTESIAN_POINT('',(41.125,-35.575,0.));
#1702=CARTESIAN_POINT('',(54.125,-35.575,3.));
#1703=CARTESIAN_POINT('',(41.125,-35.575,3.));
#1704=CARTESIAN_POINT('',(54.125,-35.575,0.));
#1705=CARTESIAN_POINT('Origin',(54.125,-35.075,0.));
#1706=CARTESIAN_POINT('',(54.625,-35.075,0.));
#1707=CARTESIAN_POINT('Origin',(54.125,-35.075,0.));
#1708=CARTESIAN_POINT('',(54.625,-35.075,3.));
#1709=CARTESIAN_POINT('Origin',(54.125,-35.075,3.));
#1710=CARTESIAN_POINT('',(54.625,-35.075,0.));
#1711=CARTESIAN_POINT('Origin',(54.625,-22.075,0.));
#1712=CARTESIAN_POINT('',(54.625,-22.075,0.));
#1713=CARTESIAN_POINT('',(54.625,-22.075,0.));
#1714=CARTESIAN_POINT('',(54.625,-22.075,3.));
#1715=CARTESIAN_POINT('',(54.625,-22.075,3.));
#1716=CARTESIAN_POINT('',(54.625,-22.075,0.));
#1717=CARTESIAN_POINT('Origin',(54.125,-22.075,0.));
#1718=CARTESIAN_POINT('',(54.125,-21.575,0.));
#1719=CARTESIAN_POINT('Origin',(54.125,-22.075,0.));
#1720=CARTESIAN_POINT('',(54.125,-21.575,3.));
#1721=CARTESIAN_POINT('Origin',(54.125,-22.075,3.));
#1722=CARTESIAN_POINT('',(54.125,-21.575,0.));
#1723=CARTESIAN_POINT('Origin',(41.125,-21.575,0.));
#1724=CARTESIAN_POINT('',(41.125,-21.575,0.));
#1725=CARTESIAN_POINT('',(41.125,-21.575,3.));
#1726=CARTESIAN_POINT('Origin',(22.075,-22.075,0.));
#1727=CARTESIAN_POINT('',(22.075,-21.575,0.));
#1728=CARTESIAN_POINT('',(21.575,-22.075,0.));
#1729=CARTESIAN_POINT('Origin',(22.075,-22.075,0.));
#1730=CARTESIAN_POINT('',(22.075,-21.575,3.));
#1731=CARTESIAN_POINT('',(22.075,-21.575,0.));
#1732=CARTESIAN_POINT('',(21.575,-22.075,3.));
#1733=CARTESIAN_POINT('Origin',(22.075,-22.075,3.));
#1734=CARTESIAN_POINT('',(21.575,-22.075,0.));
#1735=CARTESIAN_POINT('Origin',(21.575,-35.075,0.));
#1736=CARTESIAN_POINT('',(21.575,-35.075,0.));
#1737=CARTESIAN_POINT('',(21.575,-22.075,0.));
#1738=CARTESIAN_POINT('',(21.575,-35.075,3.));
#1739=CARTESIAN_POINT('',(21.575,-22.075,3.));
#1740=CARTESIAN_POINT('',(21.575,-35.075,0.));
#1741=CARTESIAN_POINT('Origin',(22.075,-35.075,0.));
#1742=CARTESIAN_POINT('',(22.075,-35.575,0.));
#1743=CARTESIAN_POINT('Origin',(22.075,-35.075,0.));
#1744=CARTESIAN_POINT('',(22.075,-35.575,3.));
#1745=CARTESIAN_POINT('Origin',(22.075,-35.075,3.));
#1746=CARTESIAN_POINT('',(22.075,-35.575,0.));
#1747=CARTESIAN_POINT('Origin',(35.075,-35.575,0.));
#1748=CARTESIAN_POINT('',(35.075,-35.575,0.));
#1749=CARTESIAN_POINT('',(22.075,-35.575,0.));
#1750=CARTESIAN_POINT('',(35.075,-35.575,3.));
#1751=CARTESIAN_POINT('',(22.075,-35.575,3.));
#1752=CARTESIAN_POINT('',(35.075,-35.575,0.));
#1753=CARTESIAN_POINT('Origin',(35.075,-35.075,0.));
#1754=CARTESIAN_POINT('',(35.575,-35.075,0.));
#1755=CARTESIAN_POINT('Origin',(35.075,-35.075,0.));
#1756=CARTESIAN_POINT('',(35.575,-35.075,3.));
#1757=CARTESIAN_POINT('Origin',(35.075,-35.075,3.));
#1758=CARTESIAN_POINT('',(35.575,-35.075,0.));
#1759=CARTESIAN_POINT('Origin',(35.575,-22.075,0.));
#1760=CARTESIAN_POINT('',(35.575,-22.075,0.));
#1761=CARTESIAN_POINT('',(35.575,-22.075,0.));
#1762=CARTESIAN_POINT('',(35.575,-22.075,3.));
#1763=CARTESIAN_POINT('',(35.575,-22.075,3.));
#1764=CARTESIAN_POINT('',(35.575,-22.075,0.));
#1765=CARTESIAN_POINT('Origin',(35.075,-22.075,0.));
#1766=CARTESIAN_POINT('',(35.075,-21.575,0.));
#1767=CARTESIAN_POINT('Origin',(35.075,-22.075,0.));
#1768=CARTESIAN_POINT('',(35.075,-21.575,3.));
#1769=CARTESIAN_POINT('Origin',(35.075,-22.075,3.));
#1770=CARTESIAN_POINT('',(35.075,-21.575,0.));
#1771=CARTESIAN_POINT('Origin',(22.075,-21.575,0.));
#1772=CARTESIAN_POINT('',(22.075,-21.575,0.));
#1773=CARTESIAN_POINT('',(22.075,-21.575,3.));
#1774=CARTESIAN_POINT('Origin',(3.025,-22.075,0.));
#1775=CARTESIAN_POINT('',(3.025,-21.575,0.));
#1776=CARTESIAN_POINT('',(2.525,-22.075,0.));
#1777=CARTESIAN_POINT('Origin',(3.025,-22.075,0.));
#1778=CARTESIAN_POINT('',(3.025,-21.575,3.));
#1779=CARTESIAN_POINT('',(3.025,-21.575,0.));
#1780=CARTESIAN_POINT('',(2.525,-22.075,3.));
#1781=CARTESIAN_POINT('Origin',(3.025,-22.075,3.));
#1782=CARTESIAN_POINT('',(2.525,-22.075,0.));
#1783=CARTESIAN_POINT('Origin',(2.525,-35.075,0.));
#1784=CARTESIAN_POINT('',(2.525,-35.075,0.));
#1785=CARTESIAN_POINT('',(2.525,-22.075,0.));
#1786=CARTESIAN_POINT('',(2.525,-35.075,3.));
#1787=CARTESIAN_POINT('',(2.525,-22.075,3.));
#1788=CARTESIAN_POINT('',(2.525,-35.075,0.));
#1789=CARTESIAN_POINT('Origin',(3.025,-35.075,0.));
#1790=CARTESIAN_POINT('',(3.025,-35.575,0.));
#1791=CARTESIAN_POINT('Origin',(3.025,-35.075,0.));
#1792=CARTESIAN_POINT('',(3.025,-35.575,3.));
#1793=CARTESIAN_POINT('Origin',(3.025,-35.075,3.));
#1794=CARTESIAN_POINT('',(3.025,-35.575,0.));
#1795=CARTESIAN_POINT('Origin',(16.025,-35.575,0.));
#1796=CARTESIAN_POINT('',(16.025,-35.575,0.));
#1797=CARTESIAN_POINT('',(3.025,-35.575,0.));
#1798=CARTESIAN_POINT('',(16.025,-35.575,3.));
#1799=CARTESIAN_POINT('',(3.025,-35.575,3.));
#1800=CARTESIAN_POINT('',(16.025,-35.575,0.));
#1801=CARTESIAN_POINT('Origin',(16.025,-35.075,0.));
#1802=CARTESIAN_POINT('',(16.525,-35.075,0.));
#1803=CARTESIAN_POINT('Origin',(16.025,-35.075,0.));
#1804=CARTESIAN_POINT('',(16.525,-35.075,3.));
#1805=CARTESIAN_POINT('Origin',(16.025,-35.075,3.));
#1806=CARTESIAN_POINT('',(16.525,-35.075,0.));
#1807=CARTESIAN_POINT('Origin',(16.525,-22.075,0.));
#1808=CARTESIAN_POINT('',(16.525,-22.075,0.));
#1809=CARTESIAN_POINT('',(16.525,-22.075,0.));
#1810=CARTESIAN_POINT('',(16.525,-22.075,3.));
#1811=CARTESIAN_POINT('',(16.525,-22.075,3.));
#1812=CARTESIAN_POINT('',(16.525,-22.075,0.));
#1813=CARTESIAN_POINT('Origin',(16.025,-22.075,0.));
#1814=CARTESIAN_POINT('',(16.025,-21.575,0.));
#1815=CARTESIAN_POINT('Origin',(16.025,-22.075,0.));
#1816=CARTESIAN_POINT('',(16.025,-21.575,3.));
#1817=CARTESIAN_POINT('Origin',(16.025,-22.075,3.));
#1818=CARTESIAN_POINT('',(16.025,-21.575,0.));
#1819=CARTESIAN_POINT('Origin',(3.025,-21.575,0.));
#1820=CARTESIAN_POINT('',(3.025,-21.575,0.));
#1821=CARTESIAN_POINT('',(3.025,-21.575,3.));
#1822=CARTESIAN_POINT('Origin',(41.125,-3.025,0.));
#1823=CARTESIAN_POINT('',(41.125,-2.525,0.));
#1824=CARTESIAN_POINT('',(40.625,-3.025,0.));
#1825=CARTESIAN_POINT('Origin',(41.125,-3.025,0.));
#1826=CARTESIAN_POINT('',(41.125,-2.525,3.));
#1827=CARTESIAN_POINT('',(41.125,-2.525,0.));
#1828=CARTESIAN_POINT('',(40.625,-3.025,3.));
#1829=CARTESIAN_POINT('Origin',(41.125,-3.025,3.));
#1830=CARTESIAN_POINT('',(40.625,-3.025,0.));
#1831=CARTESIAN_POINT('Origin',(40.625,-16.025,0.));
#1832=CARTESIAN_POINT('',(40.625,-16.025,0.));
#1833=CARTESIAN_POINT('',(40.625,-3.025,0.));
#1834=CARTESIAN_POINT('',(40.625,-16.025,3.));
#1835=CARTESIAN_POINT('',(40.625,-3.025,3.));
#1836=CARTESIAN_POINT('',(40.625,-16.025,0.));
#1837=CARTESIAN_POINT('Origin',(41.125,-16.025,0.));
#1838=CARTESIAN_POINT('',(41.125,-16.525,0.));
#1839=CARTESIAN_POINT('Origin',(41.125,-16.025,0.));
#1840=CARTESIAN_POINT('',(41.125,-16.525,3.));
#1841=CARTESIAN_POINT('Origin',(41.125,-16.025,3.));
#1842=CARTESIAN_POINT('',(41.125,-16.525,0.));
#1843=CARTESIAN_POINT('Origin',(54.125,-16.525,0.));
#1844=CARTESIAN_POINT('',(54.125,-16.525,0.));
#1845=CARTESIAN_POINT('',(41.125,-16.525,0.));
#1846=CARTESIAN_POINT('',(54.125,-16.525,3.));
#1847=CARTESIAN_POINT('',(41.125,-16.525,3.));
#1848=CARTESIAN_POINT('',(54.125,-16.525,0.));
#1849=CARTESIAN_POINT('Origin',(54.125,-16.025,0.));
#1850=CARTESIAN_POINT('',(54.625,-16.025,0.));
#1851=CARTESIAN_POINT('Origin',(54.125,-16.025,0.));
#1852=CARTESIAN_POINT('',(54.625,-16.025,3.));
#1853=CARTESIAN_POINT('Origin',(54.125,-16.025,3.));
#1854=CARTESIAN_POINT('',(54.625,-16.025,0.));
#1855=CARTESIAN_POINT('Origin',(54.625,-3.025,0.));
#1856=CARTESIAN_POINT('',(54.625,-3.025,0.));
#1857=CARTESIAN_POINT('',(54.625,-3.025,0.));
#1858=CARTESIAN_POINT('',(54.625,-3.025,3.));
#1859=CARTESIAN_POINT('',(54.625,-3.025,3.));
#1860=CARTESIAN_POINT('',(54.625,-3.025,0.));
#1861=CARTESIAN_POINT('Origin',(54.125,-3.025,0.));
#1862=CARTESIAN_POINT('',(54.125,-2.525,0.));
#1863=CARTESIAN_POINT('Origin',(54.125,-3.025,0.));
#1864=CARTESIAN_POINT('',(54.125,-2.525,3.));
#1865=CARTESIAN_POINT('Origin',(54.125,-3.025,3.));
#1866=CARTESIAN_POINT('',(54.125,-2.525,0.));
#1867=CARTESIAN_POINT('Origin',(41.125,-2.525,0.));
#1868=CARTESIAN_POINT('',(41.125,-2.525,0.));
#1869=CARTESIAN_POINT('',(41.125,-2.525,3.));
#1870=CARTESIAN_POINT('Origin',(22.075,-3.025,0.));
#1871=CARTESIAN_POINT('',(22.075,-2.525,0.));
#1872=CARTESIAN_POINT('',(21.575,-3.025,0.));
#1873=CARTESIAN_POINT('Origin',(22.075,-3.025,0.));
#1874=CARTESIAN_POINT('',(22.075,-2.525,3.));
#1875=CARTESIAN_POINT('',(22.075,-2.525,0.));
#1876=CARTESIAN_POINT('',(21.575,-3.025,3.));
#1877=CARTESIAN_POINT('Origin',(22.075,-3.025,3.));
#1878=CARTESIAN_POINT('',(21.575,-3.025,0.));
#1879=CARTESIAN_POINT('Origin',(21.575,-16.025,0.));
#1880=CARTESIAN_POINT('',(21.575,-16.025,0.));
#1881=CARTESIAN_POINT('',(21.575,-3.025,0.));
#1882=CARTESIAN_POINT('',(21.575,-16.025,3.));
#1883=CARTESIAN_POINT('',(21.575,-3.025,3.));
#1884=CARTESIAN_POINT('',(21.575,-16.025,0.));
#1885=CARTESIAN_POINT('Origin',(22.075,-16.025,0.));
#1886=CARTESIAN_POINT('',(22.075,-16.525,0.));
#1887=CARTESIAN_POINT('Origin',(22.075,-16.025,0.));
#1888=CARTESIAN_POINT('',(22.075,-16.525,3.));
#1889=CARTESIAN_POINT('Origin',(22.075,-16.025,3.));
#1890=CARTESIAN_POINT('',(22.075,-16.525,0.));
#1891=CARTESIAN_POINT('Origin',(35.075,-16.525,0.));
#1892=CARTESIAN_POINT('',(35.075,-16.525,0.));
#1893=CARTESIAN_POINT('',(22.075,-16.525,0.));
#1894=CARTESIAN_POINT('',(35.075,-16.525,3.));
#1895=CARTESIAN_POINT('',(22.075,-16.525,3.));
#1896=CARTESIAN_POINT('',(35.075,-16.525,0.));
#1897=CARTESIAN_POINT('Origin',(35.075,-16.025,0.));
#1898=CARTESIAN_POINT('',(35.575,-16.025,0.));
#1899=CARTESIAN_POINT('Origin',(35.075,-16.025,0.));
#1900=CARTESIAN_POINT('',(35.575,-16.025,3.));
#1901=CARTESIAN_POINT('Origin',(35.075,-16.025,3.));
#1902=CARTESIAN_POINT('',(35.575,-16.025,0.));
#1903=CARTESIAN_POINT('Origin',(35.575,-3.025,0.));
#1904=CARTESIAN_POINT('',(35.575,-3.025,0.));
#1905=CARTESIAN_POINT('',(35.575,-3.025,0.));
#1906=CARTESIAN_POINT('',(35.575,-3.025,3.));
#1907=CARTESIAN_POINT('',(35.575,-3.025,3.));
#1908=CARTESIAN_POINT('',(35.575,-3.025,0.));
#1909=CARTESIAN_POINT('Origin',(35.075,-3.025,0.));
#1910=CARTESIAN_POINT('',(35.075,-2.525,0.));
#1911=CARTESIAN_POINT('Origin',(35.075,-3.025,0.));
#1912=CARTESIAN_POINT('',(35.075,-2.525,3.));
#1913=CARTESIAN_POINT('Origin',(35.075,-3.025,3.));
#1914=CARTESIAN_POINT('',(35.075,-2.525,0.));
#1915=CARTESIAN_POINT('Origin',(22.075,-2.525,0.));
#1916=CARTESIAN_POINT('',(22.075,-2.525,0.));
#1917=CARTESIAN_POINT('',(22.075,-2.525,3.));
#1918=CARTESIAN_POINT('Origin',(3.025,-3.025,0.));
#1919=CARTESIAN_POINT('',(3.025,-2.525,0.));
#1920=CARTESIAN_POINT('',(2.525,-3.025,0.));
#1921=CARTESIAN_POINT('Origin',(3.025,-3.025,0.));
#1922=CARTESIAN_POINT('',(3.025,-2.525,3.));
#1923=CARTESIAN_POINT('',(3.025,-2.525,0.));
#1924=CARTESIAN_POINT('',(2.525,-3.025,3.));
#1925=CARTESIAN_POINT('Origin',(3.025,-3.025,3.));
#1926=CARTESIAN_POINT('',(2.525,-3.025,0.));
#1927=CARTESIAN_POINT('Origin',(2.525,-16.025,0.));
#1928=CARTESIAN_POINT('',(2.525,-16.025,0.));
#1929=CARTESIAN_POINT('',(2.525,-3.025,0.));
#1930=CARTESIAN_POINT('',(2.525,-16.025,3.));
#1931=CARTESIAN_POINT('',(2.525,-3.025,3.));
#1932=CARTESIAN_POINT('',(2.525,-16.025,0.));
#1933=CARTESIAN_POINT('Origin',(3.025,-16.025,0.));
#1934=CARTESIAN_POINT('',(3.025,-16.525,0.));
#1935=CARTESIAN_POINT('Origin',(3.025,-16.025,0.));
#1936=CARTESIAN_POINT('',(3.025,-16.525,3.));
#1937=CARTESIAN_POINT('Origin',(3.025,-16.025,3.));
#1938=CARTESIAN_POINT('',(3.025,-16.525,0.));
#1939=CARTESIAN_POINT('Origin',(16.025,-16.525,0.));
#1940=CARTESIAN_POINT('',(16.025,-16.525,0.));
#1941=CARTESIAN_POINT('',(3.025,-16.525,0.));
#1942=CARTESIAN_POINT('',(16.025,-16.525,3.));
#1943=CARTESIAN_POINT('',(3.025,-16.525,3.));
#1944=CARTESIAN_POINT('',(16.025,-16.525,0.));
#1945=CARTESIAN_POINT('Origin',(16.025,-16.025,0.));
#1946=CARTESIAN_POINT('',(16.525,-16.025,0.));
#1947=CARTESIAN_POINT('Origin',(16.025,-16.025,0.));
#1948=CARTESIAN_POINT('',(16.525,-16.025,3.));
#1949=CARTESIAN_POINT('Origin',(16.025,-16.025,3.));
#1950=CARTESIAN_POINT('',(16.525,-16.025,0.));
#1951=CARTESIAN_POINT('Origin',(16.525,-3.025,0.));
#1952=CARTESIAN_POINT('',(16.525,-3.025,0.));
#1953=CARTESIAN_POINT('',(16.525,-3.025,0.));
#1954=CARTESIAN_POINT('',(16.525,-3.025,3.));
#1955=CARTESIAN_POINT('',(16.525,-3.025,3.));
#1956=CARTESIAN_POINT('',(16.525,-3.025,0.));
#1957=CARTESIAN_POINT('Origin',(16.025,-3.025,0.));
#1958=CARTESIAN_POINT('',(16.025,-2.525,0.));
#1959=CARTESIAN_POINT('Origin',(16.025,-3.025,0.));
#1960=CARTESIAN_POINT('',(16.025,-2.525,3.));
#1961=CARTESIAN_POINT('Origin',(16.025,-3.025,3.));
#1962=CARTESIAN_POINT('',(16.025,-2.525,0.));
#1963=CARTESIAN_POINT('Origin',(3.025,-2.525,0.));
#1964=CARTESIAN_POINT('',(3.025,-2.525,0.));
#1965=CARTESIAN_POINT('',(3.025,-2.525,3.));
#1966=CARTESIAN_POINT('Origin',(-10.,10.,0.));
#1967=CARTESIAN_POINT('',(-10.,-66.4,0.));
#1968=CARTESIAN_POINT('',(-10.,10.,0.));
#1969=CARTESIAN_POINT('',(-10.,-66.4,0.));
#1970=CARTESIAN_POINT('',(-10.,-66.4,3.));
#1971=CARTESIAN_POINT('',(-10.,-66.4,0.));
#1972=CARTESIAN_POINT('',(-10.,10.,3.));
#1973=CARTESIAN_POINT('',(-10.,-66.4,3.));
#1974=CARTESIAN_POINT('',(-10.,10.,0.));
#1975=CARTESIAN_POINT('Origin',(68.9,10.,0.));
#1976=CARTESIAN_POINT('',(68.9,10.,0.));
#1977=CARTESIAN_POINT('',(-10.,10.,0.));
#1978=CARTESIAN_POINT('',(68.9,10.,3.));
#1979=CARTESIAN_POINT('',(-10.,10.,3.));
#1980=CARTESIAN_POINT('',(68.9,10.,0.));
#1981=CARTESIAN_POINT('Origin',(68.9,-66.4,0.));
#1982=CARTESIAN_POINT('',(68.9,-66.4,0.));
#1983=CARTESIAN_POINT('',(68.9,10.,0.));
#1984=CARTESIAN_POINT('',(68.9,-66.4,3.));
#1985=CARTESIAN_POINT('',(68.9,10.,3.));
#1986=CARTESIAN_POINT('',(68.9,-66.4,0.));
#1987=CARTESIAN_POINT('Origin',(-10.,-66.4,0.));
#1988=CARTESIAN_POINT('',(68.9,-66.4,0.));
#1989=CARTESIAN_POINT('',(68.9,-66.4,3.));
#1990=CARTESIAN_POINT('Origin',(29.45,-28.2,3.));
#1991=CARTESIAN_POINT('Origin',(29.45,-28.2,0.));
#1992=UNCERTAINTY_MEASURE_WITH_UNIT(LENGTH_MEASURE(0.01),#1996,
'DISTANCE_ACCURACY_VALUE',
'Maximum model space distance between geometric entities at asserted c
onnectivities');
#1993=UNCERTAINTY_MEASURE_WITH_UNIT(LENGTH_MEASURE(0.01),#1996,
'DISTANCE_ACCURACY_VALUE',
'Maximum model space distance between geometric entities at asserted c
onnectivities');
#1994=(
GEOMETRIC_REPRESENTATION_CONTEXT(3)
GLOBAL_UNCERTAINTY_ASSIGNED_CONTEXT((#1992))
GLOBAL_UNIT_ASSIGNED_CONTEXT((#1996,#1998,#1999))
REPRESENTATION_CONTEXT('','3D')
);
#1995=(
GEOMETRIC_REPRESENTATION_CONTEXT(3)
GLOBAL_UNCERTAINTY_ASSIGNED_CONTEXT((#1993))
GLOBAL_UNIT_ASSIGNED_CONTEXT((#1996,#1998,#1999))
REPRESENTATION_CONTEXT('','3D')
);
#1996=(
LENGTH_UNIT()
NAMED_UNIT(*)
SI_UNIT(.MILLI.,.METRE.)
);
#1997=(
LENGTH_UNIT()
NAMED_UNIT(*)
SI_UNIT($,.METRE.)
);
#1998=(
NAMED_UNIT(*)
PLANE_ANGLE_UNIT()
SI_UNIT($,.RADIAN.)
);
#1999=(
NAMED_UNIT(*)
SI_UNIT($,.STERADIAN.)
SOLID_ANGLE_UNIT()
);
#2000=SHAPE_DEFINITION_REPRESENTATION(#2001,#2002);
#2001=PRODUCT_DEFINITION_SHAPE('',$,#2004);
#2002=SHAPE_REPRESENTATION('',(#1196),#1994);
#2003=PRODUCT_DEFINITION_CONTEXT('part definition',#2008,'design');
#2004=PRODUCT_DEFINITION('plate-2026-06-02T10_55_19.841Z',
'plate-2026-06-02T10_55_19.841Z v1',#2005,#2003);
#2005=PRODUCT_DEFINITION_FORMATION('',$,#2010);
#2006=PRODUCT_RELATED_PRODUCT_CATEGORY(
'plate-2026-06-02T10_55_19.841Z v1','plate-2026-06-02T10_55_19.841Z v1',
(#2010));
#2007=APPLICATION_PROTOCOL_DEFINITION('international standard',
'automotive_design',2009,#2008);
#2008=APPLICATION_CONTEXT(
'Core Data for Automotive Mechanical Design Process');
#2009=PRODUCT_CONTEXT('part definition',#2008,'mechanical');
#2010=PRODUCT('plate-2026-06-02T10_55_19.841Z',
'plate-2026-06-02T10_55_19.841Z v1',$,(#2009));
#2011=PRESENTATION_STYLE_ASSIGNMENT((#2012));
#2012=SURFACE_STYLE_USAGE(.BOTH.,#2013);
#2013=SURFACE_SIDE_STYLE('',(#2014));
#2014=SURFACE_STYLE_FILL_AREA(#2015);
#2015=FILL_AREA_STYLE('Steel - Satin',(#2016));
#2016=FILL_AREA_STYLE_COLOUR('Steel - Satin',#2017);
#2017=COLOUR_RGB('Steel - Satin',0.627450980392157,0.627450980392157,0.627450980392157);
ENDSEC;
END-ISO-10303-21;
